<?xml version="1.0" encoding="UTF-8" standalone="no"?>
<!DOCTYPE svg PUBLIC "-//W3C//DTD SVG 1.1//EN"
 "http://www.w3.org/Graphics/SVG/1.1/DTD/svg11.dtd">
<!-- Generated by graphviz version 2.43.0 (0)
 -->
<!-- Title: AitherArchitecture Pages: 1 -->
<svg width="1238pt" height="849pt"
 viewBox="0.00 0.00 1238.00 848.50" xmlns="http://www.w3.org/2000/svg" xmlns:xlink="http://www.w3.org/1999/xlink">
<g id="graph0" class="graph" transform="scale(1 1) rotate(0) translate(4 844.5)">
<title>AitherArchitecture</title>
<polygon fill="#ffffff" stroke="transparent" points="-4,4 -4,-844.5 1234,-844.5 1234,4 -4,4"/>
<g id="clust1" class="cluster">
<title>cluster_users</title>
<polygon fill="#e3f2fd" stroke="#1565c0" points="29,-755.5 29,-832.5 281,-832.5 281,-755.5 29,-755.5"/>
<text text-anchor="middle" x="155" y="-817.3" font-family="Arial" font-size="14.00">Пользователи</text>
</g>
<g id="clust2" class="cluster">
<title>cluster_vps2</title>
<polygon fill="#fff3e0" stroke="#e65100" points="8,-320.12 8,-707.5 364,-707.5 364,-320.12 8,-320.12"/>
<text text-anchor="middle" x="186" y="-692.3" font-family="Arial" font-size="14.00">VPS2 (130.17.1.90)</text>
</g>
<g id="clust3" class="cluster">
<title>cluster_k8s</title>
<polygon fill="#e8f5e9" stroke="#2e7d32" points="372,-8 372,-434.25 979,-434.25 979,-8 372,-8"/>
<text text-anchor="middle" x="675.5" y="-419.05" font-family="Arial" font-size="14.00">Kubernetes (n8 + n7)</text>
</g>
<g id="clust4" class="cluster">
<title>cluster_n8</title>
<polygon fill="#f1f8e9" stroke="#558b2f" points="631,-172.25 631,-264.25 791,-264.25 791,-172.25 631,-172.25"/>
<text text-anchor="middle" x="711" y="-249.05" font-family="Arial" font-size="14.00">n8 (control&#45;plane)</text>
</g>
<g id="clust5" class="cluster">
<title>cluster_n7</title>
<polygon fill="#f1f8e9" stroke="#558b2f" points="799,-172.25 799,-264.25 959,-264.25 959,-172.25 799,-172.25"/>
<text text-anchor="middle" x="879" y="-249.05" font-family="Arial" font-size="14.00">n7 (worker)</text>
</g>
<g id="clust6" class="cluster">
<title>cluster_auth</title>
<polygon fill="#f3e5f5" stroke="#6a1b9a" points="987,-328.25 987,-403.25 1222,-403.25 1222,-328.25 987,-328.25"/>
<text text-anchor="middle" x="1104.5" y="-388.05" font-family="Arial" font-size="14.00">OAuth&#45;провайдеры</text>
</g>
<!-- browser -->
<g id="node1" class="node">
<title>browser</title>
<polygon fill="#bbdefb" stroke="black" points="107,-801.5 37,-801.5 37,-797.5 33,-797.5 33,-793.5 37,-793.5 37,-771.5 33,-771.5 33,-767.5 37,-767.5 37,-763.5 107,-763.5 107,-801.5"/>
<polyline fill="none" stroke="black" points="37,-797.5 41,-797.5 41,-793.5 37,-793.5 "/>
<polyline fill="none" stroke="black" points="37,-771.5 41,-771.5 41,-767.5 37,-767.5 "/>
<text text-anchor="middle" x="72" y="-786.3" font-family="Arial" font-size="14.00">Браузер</text>
<text text-anchor="middle" x="72" y="-771.3" font-family="Arial" font-size="14.00">(портал)</text>
</g>
<!-- nginx -->
<g id="node3" class="node">
<title>nginx</title>
<path fill="#ffe0b2" stroke="black" d="M185,-671.85C185,-674.49 160.35,-676.63 130,-676.63 99.65,-676.63 75,-674.49 75,-671.85 75,-671.85 75,-628.9 75,-628.9 75,-626.26 99.65,-624.12 130,-624.12 160.35,-624.12 185,-626.26 185,-628.9 185,-628.9 185,-671.85 185,-671.85"/>
<path fill="none" stroke="black" d="M185,-671.85C185,-669.22 160.35,-667.08 130,-667.08 99.65,-667.08 75,-669.22 75,-671.85"/>
<text text-anchor="middle" x="130" y="-654.17" font-family="Arial" font-size="14.00">Nginx :80</text>
<text text-anchor="middle" x="130" y="-639.17" font-family="Arial" font-size="14.00">(SPA + прокси)</text>
</g>
<!-- browser&#45;&gt;nginx -->
<g id="edge1" class="edge">
<title>browser&#45;&gt;nginx</title>
<path fill="none" stroke="#555555" d="M80.06,-763.41C88.91,-743.56 103.33,-711.21 114.4,-686.37"/>
<polygon fill="#555555" stroke="#555555" points="117.74,-687.48 118.61,-676.92 111.35,-684.63 117.74,-687.48"/>
<text text-anchor="middle" x="123.5" y="-726.8" font-family="Arial" font-size="14.00">HTTPS</text>
</g>
<!-- api_client -->
<g id="node2" class="node">
<title>api_client</title>
<polygon fill="#bbdefb" stroke="black" points="273,-801.5 125,-801.5 125,-797.5 121,-797.5 121,-793.5 125,-793.5 125,-771.5 121,-771.5 121,-767.5 125,-767.5 125,-763.5 273,-763.5 273,-801.5"/>
<polyline fill="none" stroke="black" points="125,-797.5 129,-797.5 129,-793.5 125,-793.5 "/>
<polyline fill="none" stroke="black" points="125,-771.5 129,-771.5 129,-767.5 125,-767.5 "/>
<text text-anchor="middle" x="199" y="-786.3" font-family="Arial" font-size="14.00">Внешний API&#45;клиент</text>
<text text-anchor="middle" x="199" y="-771.3" font-family="Arial" font-size="14.00">(curl, Python, etc)</text>
</g>
<!-- api_client&#45;&gt;nginx -->
<g id="edge2" class="edge">
<title>api_client&#45;&gt;nginx</title>
<path fill="none" stroke="#555555" d="M189.41,-763.41C178.83,-743.47 161.58,-710.93 148.38,-686.04"/>
<polygon fill="#555555" stroke="#555555" points="151.32,-684.11 143.54,-676.92 145.14,-687.39 151.32,-684.11"/>
<text text-anchor="middle" x="225" y="-734.3" font-family="Arial" font-size="14.00">HTTPS</text>
<text text-anchor="middle" x="225" y="-719.3" font-family="Arial" font-size="14.00">Bearer API&#45;Key</text>
</g>
<!-- portal_static -->
<g id="node4" class="node">
<title>portal_static</title>
<polygon fill="#ffe0b2" stroke="black" points="134,-550.75 16,-550.75 16,-512.75 140,-512.75 140,-544.75 134,-550.75"/>
<polyline fill="none" stroke="black" points="134,-550.75 134,-544.75 "/>
<polyline fill="none" stroke="black" points="140,-544.75 134,-544.75 "/>
<text text-anchor="middle" x="78" y="-535.55" font-family="Arial" font-size="14.00">Статика портала</text>
<text text-anchor="middle" x="78" y="-520.55" font-family="Arial" font-size="14.00">index.html</text>
</g>
<!-- nginx&#45;&gt;portal_static -->
<g id="edge3" class="edge">
<title>nginx&#45;&gt;portal_static</title>
<path fill="none" stroke="#555555" d="M118.72,-624.07C110.28,-605.16 98.77,-579.34 90.14,-559.98"/>
<polygon fill="#555555" stroke="#555555" points="93.31,-558.49 86.04,-550.78 86.92,-561.34 93.31,-558.49"/>
</g>
<!-- bff -->
<g id="node5" class="node">
<title>bff</title>
<polygon fill="#ffe0b2" stroke="black" points="356,-558.25 158,-558.25 158,-505.25 356,-505.25 356,-558.25"/>
<text text-anchor="middle" x="257" y="-543.05" font-family="Arial" font-size="14.00">BFF :3000</text>
<text text-anchor="middle" x="257" y="-528.05" font-family="Arial" font-size="14.00">(Node.js/Fastify)</text>
<text text-anchor="middle" x="257" y="-513.05" font-family="Arial" font-size="14.00">Авторизация, чаты, биллинг</text>
</g>
<!-- nginx&#45;&gt;bff -->
<g id="edge4" class="edge">
<title>nginx&#45;&gt;bff</title>
<path fill="none" stroke="#555555" d="M157.56,-624.07C176.32,-606.84 201.32,-583.88 221.56,-565.3"/>
<polygon fill="#555555" stroke="#555555" points="224.06,-567.75 229.06,-558.41 219.33,-562.6 224.06,-567.75"/>
<text text-anchor="middle" x="228" y="-595.05" font-family="Arial" font-size="14.00">/api/*</text>
<text text-anchor="middle" x="228" y="-580.05" font-family="Arial" font-size="14.00">/auth/*</text>
</g>
<!-- pg_vps2 -->
<g id="node6" class="node">
<title>pg_vps2</title>
<path fill="#ffe0b2" stroke="black" d="M213.5,-375.73C213.5,-378.36 179.21,-380.5 137,-380.5 94.79,-380.5 60.5,-378.36 60.5,-375.73 60.5,-375.73 60.5,-332.77 60.5,-332.77 60.5,-330.14 94.79,-328 137,-328 179.21,-328 213.5,-330.14 213.5,-332.77 213.5,-332.77 213.5,-375.73 213.5,-375.73"/>
<path fill="none" stroke="black" d="M213.5,-375.73C213.5,-373.09 179.21,-370.95 137,-370.95 94.79,-370.95 60.5,-373.09 60.5,-375.73"/>
<text text-anchor="middle" x="137" y="-358.05" font-family="Arial" font-size="14.00">PostgreSQL</text>
<text text-anchor="middle" x="137" y="-343.05" font-family="Arial" font-size="14.00">(пользователи, чаты)</text>
</g>
<!-- bff&#45;&gt;pg_vps2 -->
<g id="edge8" class="edge">
<title>bff&#45;&gt;pg_vps2</title>
<path fill="none" stroke="#555555" d="M239.55,-505.23C218.61,-474.6 183.41,-423.12 160.19,-389.17"/>
<polygon fill="#555555" stroke="#555555" points="162.81,-386.79 154.28,-380.52 157.03,-390.75 162.81,-386.79"/>
</g>
<!-- chromadb -->
<g id="node7" class="node">
<title>chromadb</title>
<path fill="none" stroke="black" stroke-dasharray="5,2" d="M344.5,-375.73C344.5,-378.36 319.18,-380.5 288,-380.5 256.82,-380.5 231.5,-378.36 231.5,-375.73 231.5,-375.73 231.5,-332.77 231.5,-332.77 231.5,-330.14 256.82,-328 288,-328 319.18,-328 344.5,-330.14 344.5,-332.77 344.5,-332.77 344.5,-375.73 344.5,-375.73"/>
<path fill="none" stroke="black" stroke-dasharray="5,2" d="M344.5,-375.73C344.5,-373.09 319.18,-370.95 288,-370.95 256.82,-370.95 231.5,-373.09 231.5,-375.73"/>
<text text-anchor="middle" x="288" y="-358.05" font-family="Arial" font-size="14.00">ChromaDB</text>
<text text-anchor="middle" x="288" y="-343.05" font-family="Arial" font-size="14.00">(векторная БД)</text>
</g>
<!-- bff&#45;&gt;chromadb -->
<g id="edge9" class="edge">
<title>bff&#45;&gt;chromadb</title>
<path fill="none" stroke="#555555" stroke-dasharray="5,2" d="M261.51,-505.23C266.85,-474.99 275.78,-424.44 281.78,-390.48"/>
<polygon fill="#555555" stroke="#555555" points="285.24,-390.97 283.54,-380.52 278.35,-389.75 285.24,-390.97"/>
<text text-anchor="middle" x="287.5" y="-461.05" font-family="Arial" font-size="14.00">RAG</text>
</g>
<!-- gateway -->
<g id="node8" class="node">
<title>gateway</title>
<polygon fill="#c8e6c9" stroke="black" points="693.5,-403.25 562.5,-403.25 562.5,-305.25 693.5,-305.25 693.5,-403.25"/>
<text text-anchor="middle" x="628" y="-388.05" font-family="Arial" font-size="14.00">Gateway :30900</text>
<text text-anchor="middle" x="628" y="-373.05" font-family="Arial" font-size="14.00">(Python)</text>
<text text-anchor="middle" x="628" y="-358.05" font-family="Arial" font-size="14.00">Резервирование</text>
<text text-anchor="middle" x="628" y="-343.05" font-family="Arial" font-size="14.00">Расчёт стоимости</text>
<text text-anchor="middle" x="628" y="-328.05" font-family="Arial" font-size="14.00">Rate Limiter</text>
<text text-anchor="middle" x="628" y="-313.05" font-family="Arial" font-size="14.00">AI Security</text>
</g>
<!-- bff&#45;&gt;gateway -->
<g id="edge10" class="edge">
<title>bff&#45;&gt;gateway</title>
<path fill="none" stroke="#555555" d="M310.95,-505.23C374.71,-475.07 481.18,-424.7 552.96,-390.75"/>
<polygon fill="#555555" stroke="#555555" points="554.87,-393.72 562.41,-386.28 551.87,-387.39 554.87,-393.72"/>
<text text-anchor="middle" x="477" y="-476.05" font-family="Arial" font-size="14.00">reserve→</text>
<text text-anchor="middle" x="477" y="-461.05" font-family="Arial" font-size="14.00">inference→</text>
<text text-anchor="middle" x="477" y="-446.05" font-family="Arial" font-size="14.00">settle</text>
</g>
<!-- google -->
<g id="node15" class="node">
<title>google</title>
<polygon fill="#e1bee7" stroke="black" points="1056.5,-372.25 995.5,-372.25 995.5,-336.25 1056.5,-336.25 1056.5,-372.25"/>
<text text-anchor="middle" x="1026" y="-350.55" font-family="Arial" font-size="14.00">Google</text>
</g>
<!-- bff&#45;&gt;google -->
<g id="edge5" class="edge">
<title>bff&#45;&gt;google</title>
<path fill="none" stroke="#555555" d="M356.21,-518.74C551.95,-494.89 970.17,-443.07 983,-434.25 1000.75,-422.05 1011.85,-400.06 1018.32,-382.38"/>
<polygon fill="#555555" stroke="#555555" points="1021.75,-383.16 1021.61,-372.57 1015.11,-380.94 1021.75,-383.16"/>
<text text-anchor="middle" x="959" y="-461.05" font-family="Arial" font-size="14.00">OAuth</text>
</g>
<!-- github -->
<g id="node16" class="node">
<title>github</title>
<polygon fill="#e1bee7" stroke="black" points="1133.5,-372.25 1074.5,-372.25 1074.5,-336.25 1133.5,-336.25 1133.5,-372.25"/>
<text text-anchor="middle" x="1104" y="-350.55" font-family="Arial" font-size="14.00">GitHub</text>
</g>
<!-- bff&#45;&gt;github -->
<g id="edge6" class="edge">
<title>bff&#45;&gt;github</title>
<path fill="none" stroke="#555555" d="M356.16,-530.95C526.98,-530.27 869.36,-524.16 983,-487.25 1024.63,-473.73 1036.96,-467 1066,-434.25 1079.38,-419.16 1089.09,-398.53 1095.34,-382.13"/>
<polygon fill="#555555" stroke="#555555" points="1098.7,-383.15 1098.79,-372.56 1092.11,-380.78 1098.7,-383.15"/>
<text text-anchor="middle" x="1077" y="-461.05" font-family="Arial" font-size="14.00">OAuth</text>
</g>
<!-- yandex -->
<g id="node17" class="node">
<title>yandex</title>
<polygon fill="#e1bee7" stroke="black" points="1214,-372.25 1152,-372.25 1152,-336.25 1214,-336.25 1214,-372.25"/>
<text text-anchor="middle" x="1183" y="-350.55" font-family="Arial" font-size="14.00">Яндекс</text>
</g>
<!-- bff&#45;&gt;yandex -->
<g id="edge7" class="edge">
<title>bff&#45;&gt;yandex</title>
<path fill="none" stroke="#555555" d="M356.21,-530.2C565.08,-528.38 1036.33,-520.6 1101,-487.25 1142.11,-466.05 1164.93,-414.04 1175.53,-382"/>
<polygon fill="#555555" stroke="#555555" points="1178.9,-382.95 1178.54,-372.36 1172.22,-380.86 1178.9,-382.95"/>
<text text-anchor="middle" x="1165" y="-461.05" font-family="Arial" font-size="14.00">OAuth</text>
</g>
<!-- pg_k8s -->
<g id="node9" class="node">
<title>pg_k8s</title>
<path fill="#c8e6c9" stroke="black" d="M504,-228.23C504,-230.86 476.21,-233 442,-233 407.79,-233 380,-230.86 380,-228.23 380,-228.23 380,-185.27 380,-185.27 380,-182.64 407.79,-180.5 442,-180.5 476.21,-180.5 504,-182.64 504,-185.27 504,-185.27 504,-228.23 504,-228.23"/>
<path fill="none" stroke="black" d="M504,-228.23C504,-225.59 476.21,-223.45 442,-223.45 407.79,-223.45 380,-225.59 380,-228.23"/>
<text text-anchor="middle" x="442" y="-210.55" font-family="Arial" font-size="14.00">PostgreSQL</text>
<text text-anchor="middle" x="442" y="-195.55" font-family="Arial" font-size="14.00">(биллинг, ключи)</text>
</g>
<!-- gateway&#45;&gt;pg_k8s -->
<g id="edge11" class="edge">
<title>gateway&#45;&gt;pg_k8s</title>
<path fill="none" stroke="#555555" d="M566.45,-305.24C549.45,-291.97 531,-277.56 514,-264.25 503.73,-256.21 492.65,-247.52 482.33,-239.42"/>
<polygon fill="#555555" stroke="#555555" points="484.27,-236.5 474.24,-233.08 479.95,-242.01 484.27,-236.5"/>
</g>
<!-- redis -->
<g id="node10" class="node">
<title>redis</title>
<path fill="#c8e6c9" stroke="black" d="M621.5,-228.23C621.5,-230.86 599.31,-233 572,-233 544.69,-233 522.5,-230.86 522.5,-228.23 522.5,-228.23 522.5,-185.27 522.5,-185.27 522.5,-182.64 544.69,-180.5 572,-180.5 599.31,-180.5 621.5,-182.64 621.5,-185.27 621.5,-185.27 621.5,-228.23 621.5,-228.23"/>
<path fill="none" stroke="black" d="M621.5,-228.23C621.5,-225.59 599.31,-223.45 572,-223.45 544.69,-223.45 522.5,-225.59 522.5,-228.23"/>
<text text-anchor="middle" x="572" y="-210.55" font-family="Arial" font-size="14.00">Redis</text>
<text text-anchor="middle" x="572" y="-195.55" font-family="Arial" font-size="14.00">(Rate Limiter)</text>
</g>
<!-- gateway&#45;&gt;redis -->
<g id="edge12" class="edge">
<title>gateway&#45;&gt;redis</title>
<path fill="none" stroke="#555555" d="M609.51,-305.2C601.59,-284.62 592.51,-261.05 585.27,-242.24"/>
<polygon fill="#555555" stroke="#555555" points="588.53,-240.95 581.67,-232.88 582,-243.47 588.53,-240.95"/>
</g>
<!-- vllm14 -->
<g id="node11" class="node">
<title>vllm14</title>
<polygon fill="#dcedc8" stroke="black" points="782.5,-233.25 639.5,-233.25 639.5,-180.25 782.5,-180.25 782.5,-233.25"/>
<text text-anchor="middle" x="711" y="-218.05" font-family="Arial" font-size="14.00">vLLM 14B</text>
<text text-anchor="middle" x="711" y="-203.05" font-family="Arial" font-size="14.00">Qwen 2.5 14B</text>
<text text-anchor="middle" x="711" y="-188.05" font-family="Arial" font-size="14.00">2× RTX 6000 (TP=2)</text>
</g>
<!-- gateway&#45;&gt;vllm14 -->
<g id="edge13" class="edge">
<title>gateway&#45;&gt;vllm14</title>
<path fill="none" stroke="#555555" d="M655.41,-305.2C667.18,-284.58 680.66,-260.94 691.4,-242.11"/>
<polygon fill="#555555" stroke="#555555" points="694.52,-243.71 696.43,-233.29 688.44,-240.24 694.52,-243.71"/>
<text text-anchor="middle" x="683.5" y="-276.05" font-family="Arial" font-size="14.00">14B</text>
</g>
<!-- vllm32 -->
<g id="node12" class="node">
<title>vllm32</title>
<polygon fill="#dcedc8" stroke="black" points="950.5,-233.25 807.5,-233.25 807.5,-180.25 950.5,-180.25 950.5,-233.25"/>
<text text-anchor="middle" x="879" y="-218.05" font-family="Arial" font-size="14.00">vLLM 32B</text>
<text text-anchor="middle" x="879" y="-203.05" font-family="Arial" font-size="14.00">Qwen 2.5 32B</text>
<text text-anchor="middle" x="879" y="-188.05" font-family="Arial" font-size="14.00">2× RTX 6000 (TP=2)</text>
</g>
<!-- gateway&#45;&gt;vllm32 -->
<g id="edge14" class="edge">
<title>gateway&#45;&gt;vllm32</title>
<path fill="none" stroke="#555555" d="M693.9,-320.12C724.98,-303.99 762.33,-283.87 795,-264.25 807.98,-256.46 821.73,-247.51 834.27,-239.07"/>
<polygon fill="#555555" stroke="#555555" points="836.42,-241.84 842.73,-233.33 832.49,-236.05 836.42,-241.84"/>
<text text-anchor="middle" x="789.5" y="-276.05" font-family="Arial" font-size="14.00">32B</text>
</g>
<!-- prometheus -->
<g id="node14" class="node">
<title>prometheus</title>
<path fill="#c8e6c9" stroke="black" d="M924,-138.6C924,-141.24 903.83,-143.38 879,-143.38 854.17,-143.38 834,-141.24 834,-138.6 834,-138.6 834,-95.65 834,-95.65 834,-93.01 854.17,-90.87 879,-90.87 903.83,-90.87 924,-93.01 924,-95.65 924,-95.65 924,-138.6 924,-138.6"/>
<path fill="none" stroke="black" d="M924,-138.6C924,-135.97 903.83,-133.83 879,-133.83 854.17,-133.83 834,-135.97 834,-138.6"/>
<text text-anchor="middle" x="879" y="-120.92" font-family="Arial" font-size="14.00">Prometheus</text>
<text text-anchor="middle" x="879" y="-105.92" font-family="Arial" font-size="14.00">(метрики)</text>
</g>
<!-- gateway&#45;&gt;prometheus -->
<g id="edge17" class="edge">
<title>gateway&#45;&gt;prometheus</title>
<path fill="none" stroke="#555555" d="M693.63,-345.27C781.56,-333.07 930.4,-306.65 963,-264.25 987.93,-231.84 982.57,-208.15 963,-172.25 956.18,-159.75 945.1,-149.7 933.19,-141.82"/>
<polygon fill="#555555" stroke="#555555" points="934.78,-138.68 924.42,-136.45 931.13,-144.66 934.78,-138.68"/>
</g>
<!-- vllm14&#45;&gt;prometheus -->
<g id="edge15" class="edge">
<title>vllm14&#45;&gt;prometheus</title>
<path fill="none" stroke="#555555" d="M760.04,-180.17C780.55,-169.48 804.43,-157.02 825.39,-146.09"/>
<polygon fill="#555555" stroke="#555555" points="827.24,-149.07 834.48,-141.34 824,-142.86 827.24,-149.07"/>
</g>
<!-- vllm32&#45;&gt;prometheus -->
<g id="edge16" class="edge">
<title>vllm32&#45;&gt;prometheus</title>
<path fill="none" stroke="#555555" d="M879,-179.93C879,-171.66 879,-162.35 879,-153.52"/>
<polygon fill="#555555" stroke="#555555" points="882.5,-153.46 879,-143.46 875.5,-153.46 882.5,-153.46"/>
</g>
<!-- grafana -->
<g id="node13" class="node">
<title>grafana</title>
<polygon fill="#c8e6c9" stroke="black" points="929.5,-54 828.5,-54 828.5,-50 824.5,-50 824.5,-46 828.5,-46 828.5,-24 824.5,-24 824.5,-20 828.5,-20 828.5,-16 929.5,-16 929.5,-54"/>
<polyline fill="none" stroke="black" points="828.5,-50 832.5,-50 832.5,-46 828.5,-46 "/>
<polyline fill="none" stroke="black" points="828.5,-24 832.5,-24 832.5,-20 828.5,-20 "/>
<text text-anchor="middle" x="879" y="-38.8" font-family="Arial" font-size="14.00">Grafana</text>
<text text-anchor="middle" x="879" y="-23.8" font-family="Arial" font-size="14.00">(observability)</text>
</g>
<!-- prometheus&#45;&gt;grafana -->
<g id="edge18" class="edge">
<title>prometheus&#45;&gt;grafana</title>
<path fill="none" stroke="#555555" d="M879,-90.77C879,-82.3 879,-72.8 879,-64.13"/>
<polygon fill="#555555" stroke="#555555" points="882.5,-64.08 879,-54.08 875.5,-64.08 882.5,-64.08"/>
</g>
</g>
</svg>
