<?xml version="1.0" encoding="UTF-8" standalone="no"?>
<!DOCTYPE svg PUBLIC "-//W3C//DTD SVG 1.1//EN"
 "http://www.w3.org/Graphics/SVG/1.1/DTD/svg11.dtd">
<!-- Generated by graphviz version 2.43.0 (0)
 -->
<!-- Title: AitherArchitecture Pages: 1 -->
<svg width="1029pt" height="526pt"
 viewBox="21.60 21.60 1007.20 504.20" xmlns="http://www.w3.org/2000/svg" xmlns:xlink="http://www.w3.org/1999/xlink">
<g id="graph0" class="graph" transform="scale(1 1) rotate(0) translate(50.4 475.4)">
<title>AitherArchitecture</title>
<polygon fill="white" stroke="transparent" points="-28.8,28.8 -28.8,-453.8 956.8,-453.8 956.8,28.8 -28.8,28.8"/>
<g id="clust1" class="cluster">
<title>cluster_vps2</title>
<path fill="#ede7f6" stroke="#5e35b1" stroke-width="2.5" d="M50,-123C50,-123 232,-123 232,-123 238,-123 244,-129 244,-135 244,-135 244,-318 244,-318 244,-324 238,-330 232,-330 232,-330 50,-330 50,-330 44,-330 38,-324 38,-318 38,-318 38,-135 38,-135 38,-129 44,-123 50,-123"/>
<text text-anchor="middle" x="141" y="-317.2" font-family="DejaVu Sans" font-size="11.00" fill="#000000">VPS2 · 130.17.1.90 · Ubuntu 24.04</text>
</g>
<g id="clust4" class="cluster">
<title>cluster_n8</title>
<path fill="#e8f5e9" stroke="#2e7d32" stroke-width="2.5" d="M256,-8C256,-8 563,-8 563,-8 569,-8 575,-14 575,-20 575,-20 575,-202 575,-202 575,-208 569,-214 563,-214 563,-214 256,-214 256,-214 250,-214 244,-208 244,-202 244,-202 244,-20 244,-20 244,-14 250,-8 256,-8"/>
<text text-anchor="middle" x="409.5" y="-202" font-family="DejaVu Sans" font-size="10.00" fill="#000000">n8 · 10.129.13.78 · Astra Linux · K8s control&#45;plane · 2× RTX 6000</text>
</g>
<g id="clust5" class="cluster">
<title>cluster_n7</title>
<path fill="#e8f5e9" stroke="#2e7d32" stroke-width="2.5" d="M352.33,-389C352.33,-389 638.67,-389 638.67,-389 641.83,-389 645,-392.17 645,-395.33 645,-395.33 645,-401.67 645,-401.67 645,-404.83 641.83,-408 638.67,-408 638.67,-408 352.33,-408 352.33,-408 349.17,-408 346,-404.83 346,-401.67 346,-401.67 346,-395.33 346,-395.33 346,-392.17 349.17,-389 352.33,-389"/>
<text text-anchor="middle" x="495.5" y="-396" font-family="DejaVu Sans" font-size="10.00" fill="#000000">n7 · 10.129.13.77 · Astra Linux · K8s worker · 2× RTX 6000</text>
</g>
<!-- v2_nginx -->
<g id="node1" class="node">
<title>v2_nginx</title>
<path fill="#d1c4e9" stroke="#5e35b1" d="M146,-425C146,-425 12,-425 12,-425 6,-425 0,-419 0,-413 0,-413 0,-365 0,-365 0,-359 6,-353 12,-353 12,-353 146,-353 146,-353 152,-353 158,-359 158,-365 158,-365 158,-413 158,-413 158,-419 152,-425 146,-425"/>
<text text-anchor="middle" x="79" y="-396.8" font-family="Times,serif" font-size="9.00" fill="#000000">nginx (SPA)</text>
<text text-anchor="middle" x="79" y="-386.8" font-family="Times,serif" font-size="9.00" fill="#000000">Docker :80</text>
<text text-anchor="middle" x="79" y="-376.8" font-family="Times,serif" font-size="9.00" fill="#000000">Статика портала</text>
</g>
<!-- v2_bff -->
<g id="node3" class="node">
<title>v2_bff</title>
<path fill="#b39ddb" stroke="#4527a0" d="M232,-310C232,-310 98,-310 98,-310 92,-310 86,-304 86,-298 86,-298 86,-250 86,-250 86,-244 92,-238 98,-238 98,-238 232,-238 232,-238 238,-238 244,-244 244,-250 244,-250 244,-298 244,-298 244,-304 238,-310 232,-310"/>
<text text-anchor="middle" x="165" y="-281.8" font-family="Times,serif" font-size="9.00" fill="#ffffff">BFF (Node.js)</text>
<text text-anchor="middle" x="165" y="-271.8" font-family="Times,serif" font-size="9.00" fill="#ffffff">systemd :3000</text>
<text text-anchor="middle" x="165" y="-261.8" font-family="Times,serif" font-size="9.00" fill="#ffffff">Auth, API, Chat</text>
</g>
<!-- v2_nginx&#45;&gt;v2_bff -->
<g id="edge2" class="edge">
<title>v2_nginx&#45;&gt;v2_bff</title>
<path fill="none" stroke="#5e35b1" stroke-width="2" d="M122,-352.93C122,-352.93 122,-320.34 122,-320.34"/>
<polygon fill="#5e35b1" stroke="#5e35b1" stroke-width="2" points="125.5,-320.34 122,-310.34 118.5,-320.34 125.5,-320.34"/>
<text text-anchor="middle" x="79.5" y="-340.43" font-family="Times,serif" font-size="14.00">:80 → :3000</text>
</g>
<!-- v2_pg -->
<g id="node2" class="node">
<title>v2_pg</title>
<path fill="#d1c4e9" stroke="#5e35b1" d="M232,-195C232,-195 98,-195 98,-195 92,-195 86,-189 86,-183 86,-183 86,-135 86,-135 86,-129 92,-123 98,-123 98,-123 232,-123 232,-123 238,-123 244,-129 244,-135 244,-135 244,-183 244,-183 244,-189 238,-195 232,-195"/>
<text text-anchor="middle" x="165" y="-166.8" font-family="Times,serif" font-size="9.00" fill="#000000">PostgreSQL 16</text>
<text text-anchor="middle" x="165" y="-156.8" font-family="Times,serif" font-size="9.00" fill="#000000">Docker :5432</text>
<text text-anchor="middle" x="165" y="-146.8" font-family="Times,serif" font-size="9.00" fill="#000000">portal_users, orgs, чаты</text>
</g>
<!-- v2_bff&#45;&gt;v2_pg -->
<g id="edge3" class="edge">
<title>v2_bff&#45;&gt;v2_pg</title>
<path fill="none" stroke="#5e35b1" stroke-width="1.5" stroke-dasharray="5,2" d="M165,-237.93C165,-237.93 165,-205.34 165,-205.34"/>
<polygon fill="#5e35b1" stroke="#5e35b1" stroke-width="1.5" points="168.5,-205.34 165,-195.34 161.5,-205.34 168.5,-205.34"/>
<text text-anchor="middle" x="144.5" y="-225.43" font-family="Times,serif" font-size="14.00">:5432</text>
</g>
<!-- n8_gw -->
<g id="node8" class="node">
<title>n8_gw</title>
<path fill="#c8e6c9" stroke="#2e7d32" d="M563,-195C563,-195 429,-195 429,-195 423,-195 417,-189 417,-183 417,-183 417,-135 417,-135 417,-129 423,-123 429,-123 429,-123 563,-123 563,-123 569,-123 575,-129 575,-135 575,-135 575,-183 575,-183 575,-189 569,-195 563,-195"/>
<text text-anchor="middle" x="496" y="-166.8" font-family="Times,serif" font-size="9.00" fill="#000000">Aither Gateway</text>
<text text-anchor="middle" x="496" y="-156.8" font-family="Times,serif" font-size="9.00" fill="#000000">systemd :8080</text>
<text text-anchor="middle" x="496" y="-146.8" font-family="Times,serif" font-size="9.00" fill="#000000">Роутинг, биллинг, RAG</text>
</g>
<!-- v2_bff&#45;&gt;n8_gw -->
<g id="edge8" class="edge">
<title>v2_bff&#45;&gt;n8_gw</title>
<path fill="none" stroke="#0d47a1" stroke-width="3" d="M244.29,-274C268.09,-274 288,-274 288,-274 288,-274 288,-159 288,-159 288,-159 406.77,-159 406.77,-159"/>
<polygon fill="#0d47a1" stroke="#0d47a1" stroke-width="3" points="406.77,-162.5 416.77,-159 406.77,-155.5 406.77,-162.5"/>
<text text-anchor="middle" x="339.5" y="-167.77" font-family="Times,serif" font-size="14.00">:3000 → :8080</text>
<text text-anchor="middle" x="339.5" y="-152.77" font-family="Times,serif" font-size="14.00">JWT</text>
</g>
<!-- v2_vpn -->
<g id="node4" class="node">
<title>v2_vpn</title>
<path fill="#ffcc80" stroke="#e65100" d="M478,-310C478,-310 344,-310 344,-310 338,-310 332,-304 332,-298 332,-298 332,-250 332,-250 332,-244 338,-238 344,-238 344,-238 478,-238 478,-238 484,-238 490,-244 490,-250 490,-250 490,-298 490,-298 490,-304 484,-310 478,-310"/>
<text text-anchor="middle" x="411" y="-281.8" font-family="Times,serif" font-size="9.00" fill="#000000">vpn&#45;cisco815</text>
<text text-anchor="middle" x="411" y="-271.8" font-family="Times,serif" font-size="9.00" fill="#000000">Docker · tun1</text>
<text text-anchor="middle" x="411" y="-261.8" font-family="Times,serif" font-size="9.00" fill="#000000">OpenConnect → Cisco</text>
</g>
<!-- cisco -->
<g id="node7" class="node">
<title>cisco</title>
<path fill="#fff176" stroke="#f9a825" d="M860,-310C860,-310 704,-310 704,-310 698,-310 692,-304 692,-298 692,-298 692,-250 692,-250 692,-244 698,-238 704,-238 704,-238 860,-238 860,-238 866,-238 872,-244 872,-250 872,-250 872,-298 872,-298 872,-304 866,-310 860,-310"/>
<text text-anchor="middle" x="782" y="-281.8" font-family="Times,serif" font-size="9.00" fill="#000000">OpenConnect VPN</text>
<text text-anchor="middle" x="782" y="-271.8" font-family="Times,serif" font-size="9.00" fill="#000000">:443</text>
<text text-anchor="middle" x="782" y="-261.8" font-family="Times,serif" font-size="9.00" fill="#000000">Маршрутизация 10.129.0.0/16</text>
</g>
<!-- v2_vpn&#45;&gt;cisco -->
<g id="edge4" class="edge">
<title>v2_vpn&#45;&gt;cisco</title>
<path fill="none" stroke="#e65100" stroke-width="2.5" d="M453.5,-237.93C453.5,-226.13 453.5,-216 453.5,-216 453.5,-216 710.67,-216 710.67,-216 710.67,-216 710.67,-227.93 710.67,-227.93"/>
<polygon fill="#e65100" stroke="#e65100" stroke-width="2.5" points="707.17,-227.93 710.67,-237.93 714.17,-227.93 707.17,-227.93"/>
<text text-anchor="middle" x="537.58" y="-219.8" font-family="Times,serif" font-size="14.00">tun1 · :443</text>
</g>
<!-- v3_nginx -->
<g id="node5" class="node">
<title>v3_nginx</title>
<path fill="#ffe0b2" stroke="#e65100" d="M326,-425C326,-425 192,-425 192,-425 186,-425 180,-419 180,-413 180,-413 180,-365 180,-365 180,-359 186,-353 192,-353 192,-353 326,-353 326,-353 332,-353 338,-359 338,-365 338,-365 338,-413 338,-413 338,-419 332,-425 326,-425"/>
<text text-anchor="middle" x="259" y="-396.8" font-family="Times,serif" font-size="9.00" fill="#000000">nginx</text>
<text text-anchor="middle" x="259" y="-386.8" font-family="Times,serif" font-size="9.00" fill="#000000">systemd :80</text>
<text text-anchor="middle" x="259" y="-376.8" font-family="Times,serif" font-size="9.00" fill="#000000">Прокси портала → VPS2</text>
</g>
<!-- v3_nginx&#45;&gt;v2_bff -->
<g id="edge1" class="edge">
<title>v3_nginx&#45;&gt;v2_bff</title>
<path fill="none" stroke="#e65100" stroke-width="2.5" d="M212,-352.93C212,-352.93 212,-320.34 212,-320.34"/>
<polygon fill="#e65100" stroke="#e65100" stroke-width="2.5" points="215.5,-320.34 212,-310.34 208.5,-320.34 215.5,-320.34"/>
<text text-anchor="middle" x="169.5" y="-340.43" font-family="Times,serif" font-size="14.00">:80 → :3000</text>
</g>
<!-- v3_vpn -->
<g id="node6" class="node">
<title>v3_vpn</title>
<path fill="#ffcc80" stroke="#bf360c" d="M658,-310C658,-310 524,-310 524,-310 518,-310 512,-304 512,-298 512,-298 512,-250 512,-250 512,-244 518,-238 524,-238 524,-238 658,-238 658,-238 664,-238 670,-244 670,-250 670,-250 670,-298 670,-298 670,-304 664,-310 658,-310"/>
<text text-anchor="middle" x="591" y="-281.8" font-family="Times,serif" font-size="9.00" fill="#000000">vpn&#45;cisco815</text>
<text text-anchor="middle" x="591" y="-271.8" font-family="Times,serif" font-size="9.00" fill="#000000">Docker · tun0</text>
<text text-anchor="middle" x="591" y="-261.8" font-family="Times,serif" font-size="9.00" fill="#000000">OpenConnect → Cisco</text>
</g>
<!-- v3_vpn&#45;&gt;cisco -->
<g id="edge5" class="edge">
<title>v3_vpn&#45;&gt;cisco</title>
<path fill="none" stroke="#e65100" stroke-width="2.5" d="M670.07,-274C670.07,-274 681.83,-274 681.83,-274"/>
<polygon fill="#e65100" stroke="#e65100" stroke-width="2.5" points="681.83,-277.5 691.83,-274 681.83,-270.5 681.83,-277.5"/>
<text text-anchor="middle" x="675.95" y="-262.8" font-family="Times,serif" font-size="14.00">tun0 · :443</text>
</g>
<!-- cisco&#45;&gt;n8_gw -->
<g id="edge6" class="edge">
<title>cisco&#45;&gt;n8_gw</title>
<path fill="none" stroke="#1565c0" stroke-width="2" d="M729.33,-237.98C729.33,-208.27 729.33,-171 729.33,-171 729.33,-171 585.32,-171 585.32,-171"/>
<polygon fill="#1565c0" stroke="#1565c0" stroke-width="2" points="585.32,-167.5 575.32,-171 585.32,-174.5 585.32,-167.5"/>
<text text-anchor="middle" x="640.82" y="-174.8" font-family="Times,serif" font-size="14.00">10.129.0.0/16</text>
</g>
<!-- n7_v32 -->
<g id="node12" class="node">
<title>n7_v32</title>
<path fill="#f3e5f5" stroke="#7b1fa2" d="M916,-80C916,-80 782,-80 782,-80 776,-80 770,-74 770,-68 770,-68 770,-20 770,-20 770,-14 776,-8 782,-8 782,-8 916,-8 916,-8 922,-8 928,-14 928,-20 928,-20 928,-68 928,-68 928,-74 922,-80 916,-80"/>
<text text-anchor="middle" x="849" y="-51.8" font-family="Times,serif" font-size="9.00" fill="#000000">vLLM</text>
<text text-anchor="middle" x="849" y="-41.8" font-family="Times,serif" font-size="9.00" fill="#000000">Qwen 2.5 32B GPTQ</text>
<text text-anchor="middle" x="849" y="-31.8" font-family="Times,serif" font-size="9.00" fill="#000000">Процесс :8000 · TP=2</text>
</g>
<!-- cisco&#45;&gt;n7_v32 -->
<g id="edge7" class="edge">
<title>cisco&#45;&gt;n7_v32</title>
<path fill="none" stroke="#1565c0" stroke-width="2" d="M838,-237.81C838,-237.81 838,-90.36 838,-90.36"/>
<polygon fill="#1565c0" stroke="#1565c0" stroke-width="2" points="841.5,-90.36 838,-80.36 834.5,-90.36 841.5,-90.36"/>
<text text-anchor="middle" x="788" y="-167.88" font-family="Times,serif" font-size="14.00">10.129.0.0/16</text>
</g>
<!-- n8_pg -->
<g id="node9" class="node">
<title>n8_pg</title>
<path fill="#ffe0b2" stroke="#e65100" d="M390,-80C390,-80 256,-80 256,-80 250,-80 244,-74 244,-68 244,-68 244,-20 244,-20 244,-14 250,-8 256,-8 256,-8 390,-8 390,-8 396,-8 402,-14 402,-20 402,-20 402,-68 402,-68 402,-74 396,-80 390,-80"/>
<text text-anchor="middle" x="323" y="-51.8" font-family="Times,serif" font-size="9.00" fill="#000000">PostgreSQL 16</text>
<text text-anchor="middle" x="323" y="-41.8" font-family="Times,serif" font-size="9.00" fill="#000000">systemd :5432</text>
<text text-anchor="middle" x="323" y="-31.8" font-family="Times,serif" font-size="9.00" fill="#000000">БД биллинга, тарифов</text>
</g>
<!-- n8_gw&#45;&gt;n8_pg -->
<g id="edge11" class="edge">
<title>n8_gw&#45;&gt;n8_pg</title>
<path fill="none" stroke="#e65100" stroke-width="1.5" stroke-dasharray="5,2" d="M420.5,-122.93C420.5,-89.2 420.5,-44 420.5,-44 420.5,-44 412.16,-44 412.16,-44"/>
<polygon fill="#e65100" stroke="#e65100" stroke-width="1.5" points="412.16,-40.5 402.16,-44 412.16,-47.5 412.16,-40.5"/>
<text text-anchor="middle" x="400" y="-83.09" font-family="Times,serif" font-size="14.00">:5432</text>
</g>
<!-- n8_redis -->
<g id="node10" class="node">
<title>n8_redis</title>
<path fill="#ffcdd2" stroke="#c62828" d="M556,-80C556,-80 436,-80 436,-80 430,-80 424,-74 424,-68 424,-68 424,-20 424,-20 424,-14 430,-8 436,-8 436,-8 556,-8 556,-8 562,-8 568,-14 568,-20 568,-20 568,-68 568,-68 568,-74 562,-80 556,-80"/>
<text text-anchor="middle" x="496" y="-51.8" font-family="Times,serif" font-size="9.00" fill="#000000">Redis 7</text>
<text text-anchor="middle" x="496" y="-41.8" font-family="Times,serif" font-size="9.00" fill="#000000">systemd :6379</text>
<text text-anchor="middle" x="496" y="-31.8" font-family="Times,serif" font-size="9.00" fill="#000000">Rate limit, очереди</text>
</g>
<!-- n8_gw&#45;&gt;n8_redis -->
<g id="edge12" class="edge">
<title>n8_gw&#45;&gt;n8_redis</title>
<path fill="none" stroke="#c62828" stroke-width="1.5" stroke-dasharray="5,2" d="M496,-122.93C496,-122.93 496,-90.34 496,-90.34"/>
<polygon fill="#c62828" stroke="#c62828" stroke-width="1.5" points="499.5,-90.34 496,-80.34 492.5,-90.34 499.5,-90.34"/>
<text text-anchor="middle" x="475.5" y="-110.43" font-family="Times,serif" font-size="14.00">:6379</text>
</g>
<!-- n8_v14 -->
<g id="node11" class="node">
<title>n8_v14</title>
<path fill="#f3e5f5" stroke="#7b1fa2" d="M736,-80C736,-80 602,-80 602,-80 596,-80 590,-74 590,-68 590,-68 590,-20 590,-20 590,-14 596,-8 602,-8 602,-8 736,-8 736,-8 742,-8 748,-14 748,-20 748,-20 748,-68 748,-68 748,-74 742,-80 736,-80"/>
<text text-anchor="middle" x="669" y="-51.8" font-family="Times,serif" font-size="9.00" fill="#000000">vLLM</text>
<text text-anchor="middle" x="669" y="-41.8" font-family="Times,serif" font-size="9.00" fill="#000000">Qwen Coder 14B</text>
<text text-anchor="middle" x="669" y="-31.8" font-family="Times,serif" font-size="9.00" fill="#000000">K8s pod · :30014 · TP=2</text>
</g>
<!-- n8_gw&#45;&gt;n8_v14 -->
<g id="edge9" class="edge">
<title>n8_gw&#45;&gt;n8_v14</title>
<path fill="none" stroke="#7b1fa2" stroke-width="2" d="M571.5,-122.93C571.5,-89.2 571.5,-44 571.5,-44 571.5,-44 579.84,-44 579.84,-44"/>
<polygon fill="#7b1fa2" stroke="#7b1fa2" stroke-width="2" points="579.84,-47.5 589.84,-44 579.84,-40.5 579.84,-47.5"/>
<text text-anchor="middle" x="627.5" y="-83.09" font-family="Times,serif" font-size="14.00">:8080 → :30014</text>
</g>
<!-- n8_gw&#45;&gt;n7_v32 -->
<g id="edge10" class="edge">
<title>n8_gw&#45;&gt;n7_v32</title>
<path fill="none" stroke="#7b1fa2" stroke-width="2" stroke-dasharray="5,2" d="M575.32,-147C666.58,-147 804,-147 804,-147 804,-147 804,-90.02 804,-90.02"/>
<polygon fill="#7b1fa2" stroke="#7b1fa2" stroke-width="2" points="807.5,-90.02 804,-80.02 800.5,-90.02 807.5,-90.02"/>
<text text-anchor="middle" x="666.65" y="-150.8" font-family="Times,serif" font-size="14.00">:8080 → :8000</text>
</g>
<!-- n7_dummy -->
</g>
</svg>
