<?xml version="1.0" encoding="UTF-8" standalone="no"?>
<!DOCTYPE svg PUBLIC "-//W3C//DTD SVG 1.1//EN"
 "http://www.w3.org/Graphics/SVG/1.1/DTD/svg11.dtd">
<!-- Generated by graphviz version 2.43.0 (0)
 -->
<!-- Title: AitherPhysicalArchitecture Pages: 1 -->
<svg width="1567pt" height="842pt"
 viewBox="21.60 21.60 1545.80 820.80" xmlns="http://www.w3.org/2000/svg" xmlns:xlink="http://www.w3.org/1999/xlink">
<g id="graph0" class="graph" transform="scale(1 1) rotate(0) translate(43.2 799.2)">
<title>AitherPhysicalArchitecture</title>
<polygon fill="white" stroke="transparent" points="-21.6,21.6 -21.6,-777.6 1502.6,-777.6 1502.6,21.6 -21.6,21.6"/>
<g id="clust1" class="cluster">
<title>cluster_vps1</title>
<path fill="#e3f2fd" stroke="#1565c0" stroke-width="2" d="M1043,-669C1043,-669 1163,-669 1163,-669 1169,-669 1175,-675 1175,-681 1175,-681 1175,-715 1175,-715 1175,-721 1169,-727 1163,-727 1163,-727 1043,-727 1043,-727 1037,-727 1031,-721 1031,-715 1031,-715 1031,-681 1031,-681 1031,-675 1037,-669 1043,-669"/>
</g>
<g id="clust2" class="cluster">
<title>cluster_vps3</title>
<path fill="#e3f2fd" stroke="#1565c0" stroke-width="2" d="M863,-528.5C863,-528.5 983,-528.5 983,-528.5 989,-528.5 995,-534.5 995,-540.5 995,-540.5 995,-722 995,-722 995,-728 989,-734 983,-734 983,-734 863,-734 863,-734 857,-734 851,-728 851,-722 851,-722 851,-540.5 851,-540.5 851,-534.5 857,-528.5 863,-528.5"/>
</g>
<g id="clust3" class="cluster">
<title>cluster_pve</title>
<path fill="#fce4ec" stroke="#c62828" stroke-width="2" d="M443,-518C443,-518 743,-518 743,-518 749,-518 755,-524 755,-530 755,-530 755,-592 755,-592 755,-598 749,-604 743,-604 743,-604 443,-604 443,-604 437,-604 431,-598 431,-592 431,-592 431,-530 431,-530 431,-524 437,-518 443,-518"/>
</g>
<g id="clust4" class="cluster">
<title>cluster_vps2</title>
<path fill="#f3e5f5" stroke="#7b1fa2" stroke-width="2" d="M83,-388C83,-388 383,-388 383,-388 389,-388 395,-394 395,-400 395,-400 395,-448 395,-448 395,-454 389,-460 383,-460 383,-460 83,-460 83,-460 77,-460 71,-454 71,-448 71,-448 71,-400 71,-400 71,-394 77,-388 83,-388"/>
</g>
<g id="clust5" class="cluster">
<title>cluster_vps2_docker</title>
<path fill="#ede7f6" stroke="#7b1fa2" stroke-width="1.5" d="M263,-391.5C263,-391.5 383,-391.5 383,-391.5 389,-391.5 395,-397.5 395,-403.5 395,-403.5 395,-444.5 395,-444.5 395,-450.5 389,-456.5 383,-456.5 383,-456.5 263,-456.5 263,-456.5 257,-456.5 251,-450.5 251,-444.5 251,-444.5 251,-403.5 251,-403.5 251,-397.5 257,-391.5 263,-391.5"/>
</g>
<g id="clust7" class="cluster">
<title>cluster_n8</title>
<path fill="#e8f5e9" stroke="#2e7d32" stroke-width="2" d="M566,-121C566,-121 866,-121 866,-121 872,-121 878,-127 878,-133 878,-133 878,-318 878,-318 878,-324 872,-330 866,-330 866,-330 566,-330 566,-330 560,-330 554,-324 554,-318 554,-318 554,-133 554,-133 554,-127 560,-121 566,-121"/>
</g>
<!-- v1_wg -->
<g id="node1" class="node">
<title>v1_wg</title>
<path fill="#bbdefb" stroke="#1976d2" stroke-width="1.5" d="M203,-730.5C203,-730.5 83,-730.5 83,-730.5 77,-730.5 71,-724.5 71,-718.5 71,-718.5 71,-677.5 71,-677.5 71,-671.5 77,-665.5 83,-665.5 83,-665.5 203,-665.5 203,-665.5 209,-665.5 215,-671.5 215,-677.5 215,-677.5 215,-718.5 215,-718.5 215,-724.5 209,-730.5 203,-730.5"/>
<text text-anchor="middle" x="143" y="-695.5" font-family="Times,serif" font-size="10.00" fill="#000000">v1_wg</text>
<text text-anchor="middle" x="43" y="-744.5" font-family="Times,serif" font-size="10.00" fill="#000000">WireGuard</text>
<text text-anchor="middle" x="43" y="-733.5" font-family="Times,serif" font-size="10.00" fill="#000000">10.99.0.1</text>
</g>
<!-- v3_wg -->
<g id="node7" class="node">
<title>v3_wg</title>
<path fill="#bbdefb" stroke="#1976d2" stroke-width="1.5" d="M369,-730.5C369,-730.5 263,-730.5 263,-730.5 257,-730.5 251,-724.5 251,-718.5 251,-718.5 251,-677.5 251,-677.5 251,-671.5 257,-665.5 263,-665.5 263,-665.5 369,-665.5 369,-665.5 375,-665.5 381,-671.5 381,-677.5 381,-677.5 381,-718.5 381,-718.5 381,-724.5 375,-730.5 369,-730.5"/>
<text text-anchor="middle" x="316" y="-695.5" font-family="Times,serif" font-size="10.00" fill="#000000">v3_wg</text>
<text text-anchor="middle" x="223" y="-744.5" font-family="Times,serif" font-size="10.00" fill="#000000">WireGuard</text>
<text text-anchor="middle" x="223" y="-733.5" font-family="Times,serif" font-size="10.00" fill="#000000">10.99.0.3</text>
</g>
<!-- v1_wg&#45;&gt;v3_wg -->
<g id="edge1" class="edge">
<title>v1_wg&#45;&gt;v3_wg</title>
<path fill="none" stroke="#2e7d32" stroke-width="3" d="M215.11,-698C215.11,-698 240.9,-698 240.9,-698"/>
<polygon fill="#2e7d32" stroke="#2e7d32" stroke-width="3" points="240.9,-701.5 250.9,-698 240.9,-694.5 240.9,-701.5"/>
<text text-anchor="middle" x="209.01" y="-686.8" font-family="Times,serif" font-size="14.00">WG 51820</text>
</g>
<!-- v2_nginx -->
<g id="node10" class="node">
<title>v2_nginx</title>
<path fill="#d1c4e9" stroke="#7b1fa2" stroke-width="1.5" d="M196,-593.5C196,-593.5 90,-593.5 90,-593.5 84,-593.5 78,-587.5 78,-581.5 78,-581.5 78,-540.5 78,-540.5 78,-534.5 84,-528.5 90,-528.5 90,-528.5 196,-528.5 196,-528.5 202,-528.5 208,-534.5 208,-540.5 208,-540.5 208,-581.5 208,-581.5 208,-587.5 202,-593.5 196,-593.5"/>
<text text-anchor="middle" x="143" y="-558.5" font-family="Times,serif" font-size="10.00" fill="#000000">v2_nginx</text>
<text text-anchor="middle" x="55" y="-607.5" font-family="Times,serif" font-size="10.00" fill="#000000">nginx</text>
<text text-anchor="middle" x="55" y="-596.5" font-family="Times,serif" font-size="10.00" fill="#000000">(SPA) :80</text>
</g>
<!-- v1_wg&#45;&gt;v2_nginx -->
<g id="edge2" class="edge">
<title>v1_wg&#45;&gt;v2_nginx</title>
<path fill="none" stroke="#2e7d32" stroke-width="3" d="M143,-665.19C143,-665.19 143,-603.55 143,-603.55"/>
<polygon fill="#2e7d32" stroke="#2e7d32" stroke-width="3" points="146.5,-603.55 143,-593.55 139.5,-603.55 146.5,-603.55"/>
<text text-anchor="middle" x="130" y="-638.17" font-family="Times,serif" font-size="14.00">WG</text>
</g>
<!-- v1_hermes -->
<g id="node2" class="node">
<title>v1_hermes</title>
<path fill="#bbdefb" stroke="#1976d2" stroke-width="1.5" d="M1163,-727C1163,-727 1043,-727 1043,-727 1037,-727 1031,-721 1031,-715 1031,-715 1031,-681 1031,-681 1031,-675 1037,-669 1043,-669 1043,-669 1163,-669 1163,-669 1169,-669 1175,-675 1175,-681 1175,-681 1175,-715 1175,-715 1175,-721 1169,-727 1163,-727"/>
<text text-anchor="middle" x="1103" y="-695.5" font-family="Times,serif" font-size="10.00" fill="#000000">v1_hermes</text>
<text text-anchor="middle" x="1068.5" y="-730" font-family="Times,serif" font-size="10.00" fill="#000000">Hermes Agent</text>
</g>
<!-- v3_hermes -->
<g id="node3" class="node">
<title>v3_hermes</title>
<path fill="#bbdefb" stroke="#1976d2" stroke-width="1.5" d="M983,-734C983,-734 863,-734 863,-734 857,-734 851,-728 851,-722 851,-722 851,-674 851,-674 851,-668 857,-662 863,-662 863,-662 983,-662 983,-662 989,-662 995,-668 995,-674 995,-674 995,-722 995,-722 995,-728 989,-734 983,-734"/>
<text text-anchor="middle" x="923" y="-695.5" font-family="Times,serif" font-size="10.00" fill="#000000">v3_hermes</text>
<text text-anchor="middle" x="807" y="-748" font-family="Times,serif" font-size="10.00" fill="#000000">Hermes Gateway</text>
<text text-anchor="middle" x="807" y="-737" font-family="Times,serif" font-size="10.00" fill="#000000">Telegram</text>
</g>
<!-- v3_aiops -->
<g id="node4" class="node">
<title>v3_aiops</title>
<path fill="#bbdefb" stroke="#1976d2" stroke-width="1.5" d="M983,-593.5C983,-593.5 877,-593.5 877,-593.5 871,-593.5 865,-587.5 865,-581.5 865,-581.5 865,-540.5 865,-540.5 865,-534.5 871,-528.5 877,-528.5 877,-528.5 983,-528.5 983,-528.5 989,-528.5 995,-534.5 995,-540.5 995,-540.5 995,-581.5 995,-581.5 995,-587.5 989,-593.5 983,-593.5"/>
<text text-anchor="middle" x="930" y="-558.5" font-family="Times,serif" font-size="10.00" fill="#000000">v3_aiops</text>
<text text-anchor="middle" x="840" y="-542.5" font-family="Times,serif" font-size="10.00" fill="#000000">AIOps 3.0</text>
<text text-anchor="middle" x="840" y="-531.5" font-family="Times,serif" font-size="10.00" fill="#000000">:8081</text>
</g>
<!-- v3_hermes&#45;&gt;v3_aiops -->
<g id="edge4" class="edge">
<title>v3_hermes&#45;&gt;v3_aiops</title>
<path fill="none" stroke="#1565c0" stroke-width="1.5" d="M930,-661.65C930,-661.65 930,-603.77 930,-603.77"/>
<polygon fill="#1565c0" stroke="#1565c0" stroke-width="1.5" points="933.5,-603.77 930,-593.77 926.5,-603.77 933.5,-603.77"/>
</g>
<!-- v3_nginx -->
<g id="node5" class="node">
<title>v3_nginx</title>
<path fill="#bbdefb" stroke="#1976d2" stroke-width="1.5" d="M372,-593.5C372,-593.5 266,-593.5 266,-593.5 260,-593.5 254,-587.5 254,-581.5 254,-581.5 254,-540.5 254,-540.5 254,-534.5 260,-528.5 266,-528.5 266,-528.5 372,-528.5 372,-528.5 378,-528.5 384,-534.5 384,-540.5 384,-540.5 384,-581.5 384,-581.5 384,-587.5 378,-593.5 372,-593.5"/>
<text text-anchor="middle" x="319" y="-558.5" font-family="Times,serif" font-size="10.00" fill="#000000">v3_nginx</text>
<text text-anchor="middle" x="230" y="-607.5" font-family="Times,serif" font-size="10.00" fill="#000000">nginx :80</text>
<text text-anchor="middle" x="230" y="-596.5" font-family="Times,serif" font-size="10.00" fill="#000000">(портал)</text>
</g>
<!-- v3_hermes&#45;&gt;v3_nginx -->
<g id="edge5" class="edge">
<title>v3_hermes&#45;&gt;v3_nginx</title>
<path fill="none" stroke="#1565c0" stroke-width="1.5" d="M850.74,-698C710.05,-698 413,-698 413,-698 413,-698 413,-561 413,-561 413,-561 394.03,-561 394.03,-561"/>
<polygon fill="#1565c0" stroke="#1565c0" stroke-width="1.5" points="394.03,-557.5 384.03,-561 394.03,-564.5 394.03,-557.5"/>
</g>
<!-- pve_k8s -->
<g id="node8" class="node">
<title>pve_k8s</title>
<path fill="#f8bbd0" stroke="#c62828" stroke-width="1.5" d="M743,-604C743,-604 623,-604 623,-604 617,-604 611,-598 611,-592 611,-592 611,-530 611,-530 611,-524 617,-518 623,-518 623,-518 743,-518 743,-518 749,-518 755,-524 755,-530 755,-530 755,-592 755,-592 755,-598 749,-604 743,-604"/>
<text text-anchor="middle" x="683" y="-558.5" font-family="Times,serif" font-size="10.00" fill="#000000">pve_k8s</text>
<text text-anchor="middle" x="588" y="-618" font-family="Times,serif" font-size="10.00" fill="#000000">K8s VMs</text>
<text text-anchor="middle" x="588" y="-607" font-family="Times,serif" font-size="10.00" fill="#000000">201&#45;206</text>
</g>
<!-- v3_hermes&#45;&gt;pve_k8s -->
<g id="edge3" class="edge">
<title>v3_hermes&#45;&gt;pve_k8s</title>
<path fill="none" stroke="#c62828" stroke-width="2.5" stroke-dasharray="5,2" d="M855.67,-661.9C855.67,-633.25 855.67,-598 855.67,-598 855.67,-598 765.23,-598 765.23,-598"/>
<polygon fill="#c62828" stroke="#c62828" stroke-width="2.5" points="765.23,-594.5 755.23,-598 765.23,-601.5 765.23,-594.5"/>
<text text-anchor="middle" x="821.9" y="-616.8" font-family="Times,serif" font-size="14.00">SSH</text>
<text text-anchor="middle" x="821.9" y="-601.8" font-family="Times,serif" font-size="14.00">:2222</text>
</g>
<!-- n8_gw -->
<g id="node15" class="node">
<title>n8_gw</title>
<path fill="#c8e6c9" stroke="#2e7d32" stroke-width="1.5" d="M866,-330C866,-330 732,-330 732,-330 726,-330 720,-324 720,-318 720,-318 720,-270 720,-270 720,-264 726,-258 732,-258 732,-258 866,-258 866,-258 872,-258 878,-264 878,-270 878,-270 878,-318 878,-318 878,-324 872,-330 866,-330"/>
<text text-anchor="middle" x="799" y="-291.5" font-family="Times,serif" font-size="10.00" fill="#000000">n8_gw</text>
<text text-anchor="middle" x="685" y="-344" font-family="Times,serif" font-size="10.00" fill="#000000">Gateway</text>
<text text-anchor="middle" x="685" y="-333" font-family="Times,serif" font-size="10.00" fill="#000000">FastAPI :8080</text>
</g>
<!-- v3_hermes&#45;&gt;n8_gw -->
<g id="edge17" class="edge">
<title>v3_hermes&#45;&gt;n8_gw</title>
<path fill="none" stroke="#9e9e9e" stroke-width="1.5" stroke-dasharray="1,5" d="M860.33,-661.79C860.33,-661.79 860.33,-340.27 860.33,-340.27"/>
<polygon fill="#9e9e9e" stroke="#9e9e9e" stroke-width="1.5" points="863.83,-340.27 860.33,-330.27 856.83,-340.27 863.83,-340.27"/>
</g>
<!-- v2_bff -->
<g id="node12" class="node">
<title>v2_bff</title>
<path fill="#e1bee7" stroke="#7b1fa2" stroke-width="1.5" d="M203,-460C203,-460 83,-460 83,-460 77,-460 71,-454 71,-448 71,-448 71,-400 71,-400 71,-394 77,-388 83,-388 83,-388 203,-388 203,-388 209,-388 215,-394 215,-400 215,-400 215,-448 215,-448 215,-454 209,-460 203,-460"/>
<text text-anchor="middle" x="143" y="-421.5" font-family="Times,serif" font-size="10.00" fill="#000000">v2_bff</text>
<text text-anchor="middle" x="35.5" y="-474" font-family="Times,serif" font-size="10.00" fill="#000000">BFF (Node.js)</text>
<text text-anchor="middle" x="35.5" y="-463" font-family="Times,serif" font-size="10.00" fill="#000000">Fastify :3000</text>
</g>
<!-- v3_nginx&#45;&gt;v2_bff -->
<g id="edge7" class="edge">
<title>v3_nginx&#45;&gt;v2_bff</title>
<path fill="none" stroke="#0d47a1" stroke-width="3" d="M253.99,-561C231.35,-561 211.5,-561 211.5,-561 211.5,-561 211.5,-470.35 211.5,-470.35"/>
<polygon fill="#0d47a1" stroke="#0d47a1" stroke-width="3" points="215,-470.35 211.5,-460.35 208,-470.35 215,-470.35"/>
<text text-anchor="middle" x="232" y="-555.72" font-family="Times,serif" font-size="14.00">HTTP</text>
<text text-anchor="middle" x="232" y="-540.72" font-family="Times,serif" font-size="14.00">:3000</text>
</g>
<!-- v3_vpn -->
<g id="node6" class="node">
<title>v3_vpn</title>
<path fill="#fff3e0" stroke="#e65100" stroke-width="1.5" d="M563,-456.5C563,-456.5 443,-456.5 443,-456.5 437,-456.5 431,-450.5 431,-444.5 431,-444.5 431,-403.5 431,-403.5 431,-397.5 437,-391.5 443,-391.5 443,-391.5 563,-391.5 563,-391.5 569,-391.5 575,-397.5 575,-403.5 575,-403.5 575,-444.5 575,-444.5 575,-450.5 569,-456.5 563,-456.5"/>
<text text-anchor="middle" x="503" y="-421.5" font-family="Times,serif" font-size="10.00" fill="#000000">v3_vpn</text>
<text text-anchor="middle" x="394.5" y="-470.5" font-family="Times,serif" font-size="10.00" fill="#000000">vpn&#45;cisco815</text>
<text text-anchor="middle" x="394.5" y="-459.5" font-family="Times,serif" font-size="10.00" fill="#000000">(Docker, tun0)</text>
</g>
<!-- cisco -->
<g id="node14" class="node">
<title>cisco</title>
<path fill="#fff176" stroke="#f9a825" d="M1069,-460C1069,-460 877,-460 877,-460 871,-460 865,-454 865,-448 865,-448 865,-400 865,-400 865,-394 871,-388 877,-388 877,-388 1069,-388 1069,-388 1075,-388 1081,-394 1081,-400 1081,-400 1081,-448 1081,-448 1081,-454 1075,-460 1069,-460"/>
<text text-anchor="middle" x="973" y="-421.2" font-family="Times,serif" font-size="11.00" fill="#000000">cisco</text>
<text text-anchor="middle" x="812.5" y="-475.2" font-family="Times,serif" font-size="11.00" fill="#000000">Cisco 815</text>
<text text-anchor="middle" x="812.5" y="-463.2" font-family="Times,serif" font-size="11.00" fill="#000000">OpenConnect VPN</text>
</g>
<!-- v3_vpn&#45;&gt;cisco -->
<g id="edge9" class="edge">
<title>v3_vpn&#45;&gt;cisco</title>
<path fill="none" stroke="#e65100" stroke-width="2.5" d="M564.5,-391.12C564.5,-375 564.5,-359 564.5,-359 564.5,-359 869.33,-359 869.33,-359 869.33,-359 869.33,-377.7 869.33,-377.7"/>
<polygon fill="#e65100" stroke="#e65100" stroke-width="2.5" points="865.83,-377.7 869.33,-387.7 872.83,-377.7 865.83,-377.7"/>
<text text-anchor="middle" x="661.71" y="-377.8" font-family="Times,serif" font-size="14.00">OpenConnect</text>
<text text-anchor="middle" x="661.71" y="-362.8" font-family="Times,serif" font-size="14.00">tun0</text>
</g>
<!-- pve_llm -->
<g id="node9" class="node">
<title>pve_llm</title>
<path fill="#f8bbd0" stroke="#c62828" stroke-width="1.5" d="M563,-597C563,-597 443,-597 443,-597 437,-597 431,-591 431,-585 431,-585 431,-537 431,-537 431,-531 437,-525 443,-525 443,-525 563,-525 563,-525 569,-525 575,-531 575,-537 575,-537 575,-585 575,-585 575,-591 569,-597 563,-597"/>
<text text-anchor="middle" x="503" y="-558.5" font-family="Times,serif" font-size="10.00" fill="#000000">pve_llm</text>
<text text-anchor="middle" x="388.5" y="-611" font-family="Times,serif" font-size="10.00" fill="#000000">llm&#45;lab (VM 110)</text>
<text text-anchor="middle" x="388.5" y="-600" font-family="Times,serif" font-size="10.00" fill="#000000">Ollama + Qwen</text>
</g>
<!-- v2_nginx&#45;&gt;v2_bff -->
<g id="edge6" class="edge">
<title>v2_nginx&#45;&gt;v2_bff</title>
<path fill="none" stroke="#7b1fa2" stroke-width="2" d="M143,-528.19C143,-528.19 143,-470.4 143,-470.4"/>
<polygon fill="#7b1fa2" stroke="#7b1fa2" stroke-width="2" points="146.5,-470.4 143,-460.4 139.5,-470.4 146.5,-470.4"/>
</g>
<!-- v2_pg -->
<g id="node11" class="node">
<title>v2_pg</title>
<path fill="#d1c4e9" stroke="#7b1fa2" stroke-width="1.5" d="M383,-456.5C383,-456.5 263,-456.5 263,-456.5 257,-456.5 251,-450.5 251,-444.5 251,-444.5 251,-403.5 251,-403.5 251,-397.5 257,-391.5 263,-391.5 263,-391.5 383,-391.5 383,-391.5 389,-391.5 395,-397.5 395,-403.5 395,-403.5 395,-444.5 395,-444.5 395,-450.5 389,-456.5 383,-456.5"/>
<text text-anchor="middle" x="323" y="-421.5" font-family="Times,serif" font-size="10.00" fill="#000000">v2_pg</text>
<text text-anchor="middle" x="289" y="-470.5" font-family="Times,serif" font-size="10.00" fill="#000000">PostgreSQL 16</text>
<text text-anchor="middle" x="289" y="-459.5" font-family="Times,serif" font-size="10.00" fill="#000000">:5432 (portal)</text>
</g>
<!-- v2_bff&#45;&gt;n8_gw -->
<g id="edge12" class="edge">
<title>v2_bff&#45;&gt;n8_gw</title>
<path fill="none" stroke="#0d47a1" stroke-width="3" d="M143,-387.95C143,-353.25 143,-306 143,-306 143,-306 709.87,-306 709.87,-306"/>
<polygon fill="#0d47a1" stroke="#0d47a1" stroke-width="3" points="709.87,-309.5 719.87,-306 709.87,-302.5 709.87,-309.5"/>
<text text-anchor="middle" x="364.96" y="-324.8" font-family="Times,serif" font-size="14.00">JWT</text>
<text text-anchor="middle" x="364.96" y="-309.8" font-family="Times,serif" font-size="14.00">:8080</text>
</g>
<!-- v2_vpn -->
<g id="node13" class="node">
<title>v2_vpn</title>
<path fill="#fff3e0" stroke="#e65100" stroke-width="1.5" d="M743,-456.5C743,-456.5 623,-456.5 623,-456.5 617,-456.5 611,-450.5 611,-444.5 611,-444.5 611,-403.5 611,-403.5 611,-397.5 617,-391.5 623,-391.5 623,-391.5 743,-391.5 743,-391.5 749,-391.5 755,-397.5 755,-403.5 755,-403.5 755,-444.5 755,-444.5 755,-450.5 749,-456.5 743,-456.5"/>
<text text-anchor="middle" x="683" y="-421.5" font-family="Times,serif" font-size="10.00" fill="#000000">v2_vpn</text>
<text text-anchor="middle" x="574.5" y="-470.5" font-family="Times,serif" font-size="10.00" fill="#000000">vpn&#45;cisco815</text>
<text text-anchor="middle" x="574.5" y="-459.5" font-family="Times,serif" font-size="10.00" fill="#000000">(Docker, tun1)</text>
</g>
<!-- v2_vpn&#45;&gt;cisco -->
<g id="edge8" class="edge">
<title>v2_vpn&#45;&gt;cisco</title>
<path fill="none" stroke="#e65100" stroke-width="2.5" d="M755.06,-424C755.06,-424 854.83,-424 854.83,-424"/>
<polygon fill="#e65100" stroke="#e65100" stroke-width="2.5" points="854.83,-427.5 864.83,-424 854.83,-420.5 854.83,-427.5"/>
<text text-anchor="middle" x="804.94" y="-412.8" font-family="Times,serif" font-size="14.00">OpenConnect</text>
<text text-anchor="middle" x="804.94" y="-397.8" font-family="Times,serif" font-size="14.00">tun1</text>
</g>
<!-- cisco&#45;&gt;n8_gw -->
<g id="edge10" class="edge">
<title>cisco&#45;&gt;n8_gw</title>
<path fill="none" stroke="#1976d2" stroke-width="2.5" d="M873.67,-387.79C873.67,-387.79 873.67,-340.02 873.67,-340.02"/>
<polygon fill="#1976d2" stroke="#1976d2" stroke-width="2.5" points="877.17,-340.02 873.67,-330.02 870.17,-340.02 877.17,-340.02"/>
<text text-anchor="middle" x="826.17" y="-367.7" font-family="Times,serif" font-size="14.00">10.129.13.78</text>
</g>
<!-- n7_v32 -->
<g id="node19" class="node">
<title>n7_v32</title>
<path fill="#f3e5f5" stroke="#7b1fa2" d="M1082,-200C1082,-200 926,-200 926,-200 920,-200 914,-194 914,-188 914,-188 914,-126 914,-126 914,-120 920,-114 926,-114 926,-114 1082,-114 1082,-114 1088,-114 1094,-120 1094,-126 1094,-126 1094,-188 1094,-188 1094,-194 1088,-200 1082,-200"/>
<text text-anchor="middle" x="1004" y="-154.5" font-family="Times,serif" font-size="10.00" fill="#000000">n7_v32</text>
<text text-anchor="middle" x="856" y="-225" font-family="Times,serif" font-size="10.00" fill="#000000">vLLM Qwen 2.5 32B</text>
<text text-anchor="middle" x="856" y="-214" font-family="Times,serif" font-size="10.00" fill="#000000">:8000 (прямой запуск)</text>
<text text-anchor="middle" x="856" y="-203" font-family="Times,serif" font-size="10.00" fill="#000000">TP=2 · GPTQ</text>
</g>
<!-- cisco&#45;&gt;n7_v32 -->
<g id="edge11" class="edge">
<title>cisco&#45;&gt;n7_v32</title>
<path fill="none" stroke="#1976d2" stroke-width="2.5" d="M1025.33,-387.99C1025.33,-387.99 1025.33,-210.39 1025.33,-210.39"/>
<polygon fill="#1976d2" stroke="#1976d2" stroke-width="2.5" points="1028.83,-210.39 1025.33,-200.39 1021.83,-210.39 1028.83,-210.39"/>
<text text-anchor="middle" x="977.83" y="-302.99" font-family="Times,serif" font-size="14.00">10.129.13.77</text>
</g>
<!-- n8_pg -->
<g id="node16" class="node">
<title>n8_pg</title>
<path fill="#ffe0b2" stroke="#e65100" stroke-width="1.5" d="M700,-193C700,-193 566,-193 566,-193 560,-193 554,-187 554,-181 554,-181 554,-133 554,-133 554,-127 560,-121 566,-121 566,-121 700,-121 700,-121 706,-121 712,-127 712,-133 712,-133 712,-181 712,-181 712,-187 706,-193 700,-193"/>
<text text-anchor="middle" x="633" y="-154.5" font-family="Times,serif" font-size="10.00" fill="#000000">n8_pg</text>
<text text-anchor="middle" x="592" y="-207" font-family="Times,serif" font-size="10.00" fill="#000000">PostgreSQL 16</text>
<text text-anchor="middle" x="592" y="-196" font-family="Times,serif" font-size="10.00" fill="#000000">:5432 (aither)</text>
</g>
<!-- n8_gw&#45;&gt;n8_pg -->
<g id="edge15" class="edge">
<title>n8_gw&#45;&gt;n8_pg</title>
<path fill="none" stroke="#e65100" stroke-width="2" stroke-dasharray="5,2" d="M734,-257.65C734,-217.06 734,-157 734,-157 734,-157 722.08,-157 722.08,-157"/>
<polygon fill="#e65100" stroke="#e65100" stroke-width="2" points="722.08,-153.5 712.08,-157 722.08,-160.5 722.08,-153.5"/>
</g>
<!-- n8_redis -->
<g id="node17" class="node">
<title>n8_redis</title>
<path fill="#ffcdd2" stroke="#c62828" stroke-width="1.5" d="M866,-189.5C866,-189.5 760,-189.5 760,-189.5 754,-189.5 748,-183.5 748,-177.5 748,-177.5 748,-136.5 748,-136.5 748,-130.5 754,-124.5 760,-124.5 760,-124.5 866,-124.5 866,-124.5 872,-124.5 878,-130.5 878,-136.5 878,-136.5 878,-177.5 878,-177.5 878,-183.5 872,-189.5 866,-189.5"/>
<text text-anchor="middle" x="813" y="-154.5" font-family="Times,serif" font-size="10.00" fill="#000000">n8_redis</text>
<text text-anchor="middle" x="767" y="-203.5" font-family="Times,serif" font-size="10.00" fill="#000000">Redis 7</text>
<text text-anchor="middle" x="767" y="-192.5" font-family="Times,serif" font-size="10.00" fill="#000000">:6379</text>
</g>
<!-- n8_gw&#45;&gt;n8_redis -->
<g id="edge16" class="edge">
<title>n8_gw&#45;&gt;n8_redis</title>
<path fill="none" stroke="#c62828" stroke-width="2" stroke-dasharray="5,2" d="M813,-257.65C813,-257.65 813,-199.77 813,-199.77"/>
<polygon fill="#c62828" stroke="#c62828" stroke-width="2" points="816.5,-199.77 813,-189.77 809.5,-199.77 816.5,-199.77"/>
</g>
<!-- n8_v14 -->
<g id="node18" class="node">
<title>n8_v14</title>
<path fill="#f3e5f5" stroke="#7b1fa2" stroke-width="1.5" d="M506,-196.5C506,-196.5 372,-196.5 372,-196.5 366,-196.5 360,-190.5 360,-184.5 360,-184.5 360,-129.5 360,-129.5 360,-123.5 366,-117.5 372,-117.5 372,-117.5 506,-117.5 506,-117.5 512,-117.5 518,-123.5 518,-129.5 518,-129.5 518,-184.5 518,-184.5 518,-190.5 512,-196.5 506,-196.5"/>
<text text-anchor="middle" x="439" y="-154.5" font-family="Times,serif" font-size="10.00" fill="#000000">n8_v14</text>
<text text-anchor="middle" x="315" y="-221.5" font-family="Times,serif" font-size="10.00" fill="#000000">vLLM Qwen</text>
<text text-anchor="middle" x="315" y="-210.5" font-family="Times,serif" font-size="10.00" fill="#000000">Coder 14B :30014</text>
<text text-anchor="middle" x="315" y="-199.5" font-family="Times,serif" font-size="10.00" fill="#000000">(K8s pod)</text>
</g>
<!-- n8_gw&#45;&gt;n8_v14 -->
<g id="edge13" class="edge">
<title>n8_gw&#45;&gt;n8_v14</title>
<path fill="none" stroke="#7b1fa2" stroke-width="2.5" d="M719.62,-282C623.55,-282 474.5,-282 474.5,-282 474.5,-282 474.5,-206.55 474.5,-206.55"/>
<polygon fill="#7b1fa2" stroke="#7b1fa2" stroke-width="2.5" points="478,-206.55 474.5,-196.55 471,-206.55 478,-206.55"/>
<text text-anchor="middle" x="534.33" y="-285.8" font-family="Times,serif" font-size="14.00">:30014</text>
</g>
<!-- n8_gw&#45;&gt;n7_v32 -->
<g id="edge14" class="edge">
<title>n8_gw&#45;&gt;n7_v32</title>
<path fill="none" stroke="#7b1fa2" stroke-width="2.5" stroke-dasharray="5,2" d="M878.34,-294C922.91,-294 969.67,-294 969.67,-294 969.67,-294 969.67,-210.35 969.67,-210.35"/>
<polygon fill="#7b1fa2" stroke="#7b1fa2" stroke-width="2.5" points="973.17,-210.35 969.67,-200.35 966.17,-210.35 973.17,-210.35"/>
<text text-anchor="middle" x="945.33" y="-282.8" font-family="Times,serif" font-size="14.00">:8000</text>
</g>
<!-- le1 -->
<g id="node20" class="node">
<title>le1</title>
<ellipse fill="none" stroke="black" cx="1004" cy="-38" rx="27" ry="18"/>
<text text-anchor="middle" x="1004" y="-34.3" font-family="Times,serif" font-size="14.00">le1</text>
<text text-anchor="middle" x="920.5" y="-74.8" font-family="Times,serif" font-size="14.00">━━━ &#160;API / HTTP</text>
<text text-anchor="middle" x="920.5" y="-59.8" font-family="Times,serif" font-size="14.00">(сплошная)</text>
</g>
<!-- n7_v32&#45;&gt;le1 -->
<!-- le2 -->
<g id="node21" class="node">
<title>le2</title>
<text text-anchor="middle" x="1094" y="-35.8" font-family="Times,serif" font-size="9.00" fill="#000000">le2</text>
<text text-anchor="middle" x="1034.5" y="-68.8" font-family="Times,serif" font-size="9.00" fill="#000000">╌╌╌ &#160;DB / SQL</text>
<text text-anchor="middle" x="1034.5" y="-58.8" font-family="Times,serif" font-size="9.00" fill="#000000">(пунктир)</text>
</g>
<!-- le1&#45;&gt;le2 -->
<!-- le3 -->
<g id="node22" class="node">
<title>le3</title>
<text text-anchor="middle" x="1184" y="-35.8" font-family="Times,serif" font-size="9.00" fill="#000000">le3</text>
<text text-anchor="middle" x="1113" y="-68.8" font-family="Times,serif" font-size="9.00" fill="#000000">━━━ &#160;WireGuard</text>
<text text-anchor="middle" x="1113" y="-58.8" font-family="Times,serif" font-size="9.00" fill="#000000">(жирная зелёная)</text>
</g>
<!-- le2&#45;&gt;le3 -->
<!-- le4 -->
<g id="node23" class="node">
<title>le4</title>
<text text-anchor="middle" x="1274" y="-35.8" font-family="Times,serif" font-size="9.00" fill="#000000">le4</text>
<text text-anchor="middle" x="1192.5" y="-12.8" font-family="Times,serif" font-size="9.00" fill="#000000">━━━ &#160;OpenConnect VPN</text>
<text text-anchor="middle" x="1192.5" y="-2.8" font-family="Times,serif" font-size="9.00" fill="#000000">(жирная оранжевая)</text>
</g>
<!-- le3&#45;&gt;le4 -->
<!-- le5 -->
<g id="node24" class="node">
<title>le5</title>
<text text-anchor="middle" x="1364" y="-35.8" font-family="Times,serif" font-size="9.00" fill="#000000">le5</text>
<text text-anchor="middle" x="1290" y="-68.8" font-family="Times,serif" font-size="9.00" fill="#000000">┅┅┅ &#160;SSH туннель</text>
<text text-anchor="middle" x="1290" y="-58.8" font-family="Times,serif" font-size="9.00" fill="#000000">(пунктир красный)</text>
</g>
<!-- le4&#45;&gt;le5 -->
<!-- le6 -->
<g id="node25" class="node">
<title>le6</title>
<text text-anchor="middle" x="1454" y="-35.8" font-family="Times,serif" font-size="9.00" fill="#000000">le6</text>
<text text-anchor="middle" x="1386" y="-68.8" font-family="Times,serif" font-size="9.00" fill="#000000">··· &#160;Health check</text>
<text text-anchor="middle" x="1386" y="-58.8" font-family="Times,serif" font-size="9.00" fill="#000000">(серый пунктир)</text>
</g>
<!-- le5&#45;&gt;le6 -->
</g>
</svg>
