<?xml version="1.0" encoding="UTF-8" standalone="no"?>
<!DOCTYPE svg PUBLIC "-//W3C//DTD SVG 1.1//EN"
 "http://www.w3.org/Graphics/SVG/1.1/DTD/svg11.dtd">
<!-- Generated by graphviz version 2.43.0 (0)
 -->
<!-- Title: RequestFlow Pages: 1 -->
<svg width="699pt" height="264pt"
 viewBox="0.00 0.00 699.00 264.00" xmlns="http://www.w3.org/2000/svg" xmlns:xlink="http://www.w3.org/1999/xlink">
<g id="graph0" class="graph" transform="scale(1 1) rotate(0) translate(4 260)">
<title>RequestFlow</title>
<polygon fill="#ffffff" stroke="transparent" points="-4,4 -4,-260 695,-260 695,4 -4,4"/>
<g id="clust1" class="cluster">
<title>cluster_vps1</title>
<polygon fill="#fafafa" stroke="#cccccc" points="170,-167 170,-248 490,-248 490,-167 170,-167"/>
<text text-anchor="middle" x="330" y="-232.8" font-family="Helvetica,sans-Serif" font-size="14.00" fill="#333333">VPS1</text>
</g>
<g id="clust2" class="cluster">
<title>cluster_vps2</title>
<polygon fill="#fafafa" stroke="#cccccc" points="551,-125 551,-200 683,-200 683,-125 551,-125"/>
<text text-anchor="middle" x="617" y="-184.8" font-family="Helvetica,sans-Serif" font-size="14.00" fill="#333333">VPS2</text>
</g>
<g id="clust3" class="cluster">
<title>cluster_k8s</title>
<polygon fill="#fafafa" stroke="#cccccc" points="351,-8 351,-108 674,-108 674,-8 351,-8"/>
<text text-anchor="middle" x="512.5" y="-92.8" font-family="Helvetica,sans-Serif" font-size="14.00" fill="#333333">K8s (40.51)</text>
</g>
<!-- user -->
<g id="node1" class="node">
<title>user</title>
<polygon fill="#e3f2fd" stroke="#1e88e5" points="91,-211 0,-211 0,-175 91,-175 91,-211"/>
<text text-anchor="middle" x="45.5" y="-196" font-family="Helvetica,sans-Serif" font-size="10.00" fill="#1565c0">Пользователь</text>
<text text-anchor="middle" x="45.5" y="-185" font-family="Helvetica,sans-Serif" font-size="10.00" fill="#1565c0">Telegram</text>
</g>
<!-- hermes -->
<g id="node2" class="node">
<title>hermes</title>
<polygon fill="#c8e6c9" stroke="#43a047" points="297,-211 178,-211 178,-175 297,-175 297,-211"/>
<text text-anchor="middle" x="237.5" y="-196" font-family="Helvetica,sans-Serif" font-size="10.00" fill="#2e7d32">1. Hermes Agent</text>
<text text-anchor="middle" x="237.5" y="-185" font-family="Helvetica,sans-Serif" font-size="10.00" fill="#2e7d32">Получение запроса</text>
</g>
<!-- user&#45;&gt;hermes -->
<g id="edge1" class="edge">
<title>user&#45;&gt;hermes</title>
<path fill="none" stroke="#1e88e5" d="M91.05,-193C113.9,-193 142.24,-193 167.81,-193"/>
<polygon fill="#1e88e5" stroke="#1e88e5" points="167.83,-196.5 177.83,-193 167.83,-189.5 167.83,-196.5"/>
<text text-anchor="middle" x="134.5" y="-195.8" font-family="Helvetica,sans-Serif" font-size="9.00"> &quot;Привет!&quot;</text>
</g>
<!-- gw -->
<g id="node3" class="node">
<title>gw</title>
<polygon fill="#bbdefb" stroke="#1e88e5" points="482,-216.5 363,-216.5 363,-175.5 482,-175.5 482,-216.5"/>
<text text-anchor="middle" x="422.5" y="-204.5" font-family="Helvetica,sans-Serif" font-size="10.00" fill="#1565c0">2. Gateway :30900</text>
<text text-anchor="middle" x="422.5" y="-193.5" font-family="Helvetica,sans-Serif" font-size="10.00" fill="#1565c0">Выбор модели</text>
<text text-anchor="middle" x="422.5" y="-182.5" font-family="Helvetica,sans-Serif" font-size="10.00" fill="#1565c0">Валидация запроса</text>
</g>
<!-- hermes&#45;&gt;gw -->
<g id="edge2" class="edge">
<title>hermes&#45;&gt;gw</title>
<path fill="none" stroke="#43a047" d="M297.04,-193.42C311.42,-193.56 326.77,-193.75 341,-194 344.71,-194.06 348.52,-194.14 352.37,-194.21"/>
<polygon fill="#43a047" stroke="#43a047" points="352.52,-197.72 362.59,-194.43 352.67,-190.72 352.52,-197.72"/>
<text text-anchor="middle" x="328" y="-196.8" font-family="Helvetica,sans-Serif" font-size="9.00"> JSON</text>
</g>
<!-- out -->
<g id="node7" class="node">
<title>out</title>
<polygon fill="#c8e6c9" stroke="#43a047" points="454,-157.5 391,-157.5 391,-116.5 454,-116.5 454,-157.5"/>
<text text-anchor="middle" x="422.5" y="-145.5" font-family="Helvetica,sans-Serif" font-size="10.00" fill="#2e7d32">Ответ</text>
<text text-anchor="middle" x="422.5" y="-134.5" font-family="Helvetica,sans-Serif" font-size="10.00" fill="#2e7d32">(токены)</text>
<text text-anchor="middle" x="422.5" y="-123.5" font-family="Helvetica,sans-Serif" font-size="10.00" fill="#2e7d32">~2&#45;3 сек</text>
</g>
<!-- hermes&#45;&gt;out -->
<g id="edge10" class="edge">
<title>hermes&#45;&gt;out</title>
<path fill="none" stroke="#2e7d32" d="M297.16,-175.05C324.54,-166.67 356.45,-156.91 381.08,-149.37"/>
<polygon fill="#2e7d32" stroke="#2e7d32" points="382.28,-152.66 390.82,-146.39 380.23,-145.97 382.28,-152.66"/>
</g>
<!-- gw&#45;&gt;hermes -->
<g id="edge9" class="edge">
<title>gw&#45;&gt;hermes</title>
<path fill="none" stroke="#43a047" d="M352.92,-204.11C340.31,-204.76 327.26,-204.88 315,-204 309.25,-203.59 303.27,-203 297.3,-202.32"/>
<polygon fill="#43a047" stroke="#43a047" points="353.15,-207.61 362.91,-203.49 352.71,-200.62 353.15,-207.61"/>
</g>
<!-- proxy -->
<g id="node4" class="node">
<title>proxy</title>
<polygon fill="#e1bee7" stroke="#8e24aa" points="675,-169 559,-169 559,-133 675,-133 675,-169"/>
<text text-anchor="middle" x="617" y="-154" font-family="Helvetica,sans-Serif" font-size="10.00" fill="#7b1fa2">3. SSH&#45;прокси</text>
<text text-anchor="middle" x="617" y="-143" font-family="Helvetica,sans-Serif" font-size="10.00" fill="#7b1fa2">WireGuard туннель</text>
</g>
<!-- gw&#45;&gt;proxy -->
<g id="edge3" class="edge">
<title>gw&#45;&gt;proxy</title>
<path fill="none" stroke="#7b1fa2" d="M482,-185.65C500.91,-182.01 521.92,-177.66 541,-173 543.63,-172.36 546.3,-171.68 549,-170.98"/>
<polygon fill="#7b1fa2" stroke="#7b1fa2" points="550.06,-174.32 558.82,-168.36 548.25,-167.56 550.06,-174.32"/>
<text text-anchor="middle" x="522.5" y="-182.8" font-family="Helvetica,sans-Serif" font-size="9.00"> SSH</text>
</g>
<!-- proxy&#45;&gt;gw -->
<g id="edge8" class="edge">
<title>proxy&#45;&gt;gw</title>
<path fill="none" stroke="#7b1fa2" d="M548.82,-164.89C534.03,-168.09 518.46,-171.57 504,-175 496.97,-176.67 489.62,-178.49 482.34,-180.33"/>
<polygon fill="#7b1fa2" stroke="#7b1fa2" points="549.87,-168.25 558.91,-162.73 548.4,-161.4 549.87,-168.25"/>
</g>
<!-- svc -->
<g id="node5" class="node">
<title>svc</title>
<polygon fill="#fff3e0" stroke="#fb8c00" points="486,-77 359,-77 359,-41 486,-41 486,-77"/>
<text text-anchor="middle" x="422.5" y="-62" font-family="Helvetica,sans-Serif" font-size="10.00" fill="#e65100">4. Service</text>
<text text-anchor="middle" x="422.5" y="-51" font-family="Helvetica,sans-Serif" font-size="10.00" fill="#e65100">vllm&#45;qwen&#45;direct:8000</text>
</g>
<!-- proxy&#45;&gt;svc -->
<g id="edge4" class="edge">
<title>proxy&#45;&gt;svc</title>
<path fill="none" stroke="#7b1fa2" d="M558.77,-134.11C540.85,-128.02 521.26,-120.52 504,-112 487.48,-103.84 470.27,-92.89 456.03,-83.06"/>
<polygon fill="#7b1fa2" stroke="#7b1fa2" points="457.77,-80.01 447.57,-77.12 453.74,-85.74 457.77,-80.01"/>
<text text-anchor="middle" x="522.5" y="-130.8" font-family="Helvetica,sans-Serif" font-size="9.00"> kubectl</text>
</g>
<!-- svc&#45;&gt;proxy -->
<g id="edge7" class="edge">
<title>svc&#45;&gt;proxy</title>
<path fill="none" stroke="#7b1fa2" d="M474.38,-81.21C495.16,-90.47 519.35,-101.5 541,-112 554.6,-118.6 569.4,-126.2 582.23,-132.93"/>
<polygon fill="#7b1fa2" stroke="#7b1fa2" points="475.65,-77.94 465.09,-77.08 472.81,-84.34 475.65,-77.94"/>
</g>
<!-- vllm -->
<g id="node6" class="node">
<title>vllm</title>
<polygon fill="#ffcdd2" stroke="#e53935" points="666,-66.5 568,-66.5 568,-25.5 666,-25.5 666,-66.5"/>
<text text-anchor="middle" x="617" y="-54.5" font-family="Helvetica,sans-Serif" font-size="10.00" fill="#c62828">5. vLLM</text>
<text text-anchor="middle" x="617" y="-43.5" font-family="Helvetica,sans-Serif" font-size="10.00" fill="#c62828">Токенизация</text>
<text text-anchor="middle" x="617" y="-32.5" font-family="Helvetica,sans-Serif" font-size="10.00" fill="#c62828">Инференс TP=2</text>
</g>
<!-- svc&#45;&gt;vllm -->
<g id="edge5" class="edge">
<title>svc&#45;&gt;vllm</title>
<path fill="none" stroke="#e65100" d="M476.27,-40.91C485.42,-38.45 494.91,-36.33 504,-35 521.45,-32.45 540.53,-33.07 557.91,-34.94"/>
<polygon fill="#e65100" stroke="#e65100" points="557.57,-38.42 567.92,-36.17 558.42,-31.47 557.57,-38.42"/>
<text text-anchor="middle" x="522.5" y="-37.8" font-family="Helvetica,sans-Serif" font-size="9.00"> :8000</text>
</g>
<!-- vllm&#45;&gt;svc -->
<g id="edge6" class="edge">
<title>vllm&#45;&gt;svc</title>
<path fill="none" stroke="#e53935" d="M557.84,-49.93C535.24,-51.45 509.29,-53.21 486.27,-54.76"/>
<polygon fill="#e53935" stroke="#e53935" points="558.23,-53.41 567.97,-49.24 557.75,-46.43 558.23,-53.41"/>
<text text-anchor="middle" x="522.5" y="-56.8" font-family="Helvetica,sans-Serif" font-size="9.00"> Токены</text>
</g>
</g>
</svg>
