<?xml version="1.0" encoding="UTF-8" standalone="no"?>
<!DOCTYPE svg PUBLIC "-//W3C//DTD SVG 1.1//EN"
 "http://www.w3.org/Graphics/SVG/1.1/DTD/svg11.dtd">
<!-- Generated by graphviz version 2.43.0 (0)
 -->
<!-- Title: G Pages: 1 -->
<svg width="695pt" height="301pt"
 viewBox="0.00 0.00 695.00 301.00" xmlns="http://www.w3.org/2000/svg" xmlns:xlink="http://www.w3.org/1999/xlink">
<g id="graph0" class="graph" transform="scale(1 1) rotate(0) translate(4 297)">
<title>G</title>
<polygon fill="#ffffff" stroke="transparent" points="-4,4 -4,-297 691,-297 691,4 -4,4"/>
<g id="clust1" class="cluster">
<title>cluster_t0</title>
<polygon fill="#f1f8e9" stroke="#2e7d32" points="0,-12 0,-195 107,-195 107,-12 0,-12"/>
<text text-anchor="middle" x="53.5" y="-179.8" font-family="Arial" font-size="14.00">T0: Лидер жив</text>
</g>
<g id="clust2" class="cluster">
<title>cluster_t1</title>
<polygon fill="#ffebee" stroke="#c62828" points="173,-8 173,-197 302,-197 302,-8 173,-8"/>
<text text-anchor="middle" x="237.5" y="-181.8" font-family="Arial" font-size="14.00">T1: Лидер упал ✗</text>
</g>
<g id="clust3" class="cluster">
<title>cluster_t2</title>
<polygon fill="#fff3e0" stroke="#e65100" points="373,-42 373,-142 660.5,-142 660.5,-42 373,-42"/>
<text text-anchor="middle" x="516.75" y="-126.8" font-family="Arial" font-size="14.00">T2: Выборы</text>
</g>
<g id="clust4" class="cluster">
<title>cluster_t3</title>
<polygon fill="#f1f8e9" stroke="#2e7d32" points="556,-150 556,-285 681,-285 681,-150 556,-150"/>
<text text-anchor="middle" x="618.5" y="-269.8" font-family="Arial" font-size="14.00">T3: Новый лидер</text>
</g>
<!-- l -->
<g id="node1" class="node">
<title>l</title>
<polygon fill="#c8e6c9" stroke="#2e7d32" points="80,-164 26,-164 26,-128 80,-128 80,-164"/>
<text text-anchor="middle" x="53" y="-149" font-family="Arial" font-size="10.00">Лидер ●</text>
<text text-anchor="middle" x="53" y="-138" font-family="Arial" font-size="10.00">Term=5</text>
</g>
<!-- l_dead -->
<g id="node4" class="node">
<title>l_dead</title>
<polygon fill="none" stroke="#c62828" stroke-dasharray="5,2" points="264.5,-166 210.5,-166 210.5,-130 264.5,-130 264.5,-166"/>
<text text-anchor="middle" x="237.5" y="-145.5" font-family="Arial" font-size="10.00">✗ Упал</text>
</g>
<!-- l&#45;&gt;l_dead -->
<g id="edge1" class="edge">
<title>l&#45;&gt;l_dead</title>
<path fill="none" stroke="#c62828" stroke-width="2" d="M80.15,-146.29C111.59,-146.63 164.55,-147.21 200,-147.6"/>
<polygon fill="#c62828" stroke="#c62828" stroke-width="2" points="200.36,-151.1 210.4,-147.71 200.44,-144.1 200.36,-151.1"/>
<text text-anchor="middle" x="140" y="-149.8" font-family="Arial" font-size="9.00" fill="#c62828">отказ</text>
</g>
<!-- f1 -->
<g id="node2" class="node">
<title>f1</title>
<polygon fill="#e3f2fd" stroke="#1565c0" points="80,-110 26,-110 26,-74 80,-74 80,-110"/>
<text text-anchor="middle" x="53" y="-95" font-family="Arial" font-size="10.00">Follower</text>
<text text-anchor="middle" x="53" y="-84" font-family="Arial" font-size="10.00">Term=5</text>
</g>
<!-- f1_timeout -->
<g id="node5" class="node">
<title>f1_timeout</title>
<polygon fill="#fff9c4" stroke="#f9a825" points="267,-111.5 208,-111.5 208,-70.5 267,-70.5 267,-111.5"/>
<text text-anchor="middle" x="237.5" y="-99.5" font-family="Arial" font-size="10.00">Follower</text>
<text text-anchor="middle" x="237.5" y="-88.5" font-family="Arial" font-size="10.00">Heartbeat</text>
<text text-anchor="middle" x="237.5" y="-77.5" font-family="Arial" font-size="10.00">timeout!</text>
</g>
<!-- f1&#45;&gt;f1_timeout -->
<g id="edge2" class="edge">
<title>f1&#45;&gt;f1_timeout</title>
<path fill="none" stroke="black" d="M80.15,-91.86C110.87,-91.69 162.15,-91.41 197.56,-91.21"/>
<polygon fill="black" stroke="black" points="198.02,-94.71 208,-91.16 197.98,-87.71 198.02,-94.71"/>
<text text-anchor="middle" x="140" y="-103.6" font-family="Arial" font-size="8.00">таймаут</text>
<text text-anchor="middle" x="140" y="-94.6" font-family="Arial" font-size="8.00">~150&#45;300ms</text>
</g>
<!-- f2 -->
<g id="node3" class="node">
<title>f2</title>
<polygon fill="#e3f2fd" stroke="#1565c0" points="80,-56 26,-56 26,-20 80,-20 80,-56"/>
<text text-anchor="middle" x="53" y="-41" font-family="Arial" font-size="10.00">Follower</text>
<text text-anchor="middle" x="53" y="-30" font-family="Arial" font-size="10.00">Term=5</text>
</g>
<!-- f1_cand -->
<g id="node7" class="node">
<title>f1_cand</title>
<polygon fill="#ffe0b2" stroke="#e65100" points="475,-110.5 381,-110.5 381,-69.5 475,-69.5 475,-110.5"/>
<text text-anchor="middle" x="428" y="-98.5" font-family="Arial" font-size="10.00">Кандидат ▲</text>
<text text-anchor="middle" x="428" y="-87.5" font-family="Arial" font-size="10.00">Term=6</text>
<text text-anchor="middle" x="428" y="-76.5" font-family="Arial" font-size="10.00">голосует за себя</text>
</g>
<!-- f1_timeout&#45;&gt;f1_cand -->
<g id="edge3" class="edge">
<title>f1_timeout&#45;&gt;f1_cand</title>
<path fill="none" stroke="#e65100" d="M267.13,-90.85C294.48,-90.7 336.46,-90.48 370.54,-90.3"/>
<polygon fill="#e65100" stroke="#e65100" points="370.86,-93.8 380.84,-90.24 370.82,-86.8 370.86,-93.8"/>
<text text-anchor="middle" x="337.5" y="-103.8" font-family="Arial" font-size="9.00" fill="#e65100">становится</text>
<text text-anchor="middle" x="337.5" y="-93.8" font-family="Arial" font-size="9.00" fill="#e65100">кандидатом</text>
</g>
<!-- f2_wait -->
<g id="node6" class="node">
<title>f2_wait</title>
<polygon fill="#e3f2fd" stroke="#1565c0" points="264.5,-52 210.5,-52 210.5,-16 264.5,-16 264.5,-52"/>
<text text-anchor="middle" x="237.5" y="-37" font-family="Arial" font-size="10.00">Follower</text>
<text text-anchor="middle" x="237.5" y="-26" font-family="Arial" font-size="10.00">ждёт</text>
</g>
<!-- f2_vote -->
<g id="node8" class="node">
<title>f2_vote</title>
<polygon fill="#e3f2fd" stroke="#1565c0" points="652.5,-91.5 584.5,-91.5 584.5,-50.5 652.5,-50.5 652.5,-91.5"/>
<text text-anchor="middle" x="618.5" y="-79.5" font-family="Arial" font-size="10.00">Follower</text>
<text text-anchor="middle" x="618.5" y="-68.5" font-family="Arial" font-size="10.00">Term=6</text>
<text text-anchor="middle" x="618.5" y="-57.5" font-family="Arial" font-size="10.00">голосует ✓</text>
</g>
<!-- f2_wait&#45;&gt;f2_vote -->
<!-- f1_cand&#45;&gt;f2_vote -->
<g id="edge4" class="edge">
<title>f1_cand&#45;&gt;f2_vote</title>
<path fill="none" stroke="#e65100" d="M475.06,-72.98C481.03,-71.34 487.11,-69.94 493,-69 519.68,-64.73 549.99,-65.11 574.02,-66.61"/>
<polygon fill="#e65100" stroke="#e65100" points="574.02,-70.12 584.25,-67.34 574.52,-63.14 574.02,-70.12"/>
<text text-anchor="middle" x="519.5" y="-71.8" font-family="Arial" font-size="9.00">RequestVote</text>
</g>
<!-- new_l -->
<g id="node9" class="node">
<title>new_l</title>
<polygon fill="#a5d6a7" stroke="#1b5e20" points="671,-253.5 566,-253.5 566,-212.5 671,-212.5 671,-253.5"/>
<text text-anchor="middle" x="618.5" y="-241.5" font-family="Arial" font-size="10.00">Лидер ★</text>
<text text-anchor="middle" x="618.5" y="-230.5" font-family="Arial" font-size="10.00">Term=6</text>
<text text-anchor="middle" x="618.5" y="-219.5" font-family="Arial" font-size="10.00">(бывший кандидат)</text>
</g>
<!-- f1_cand&#45;&gt;new_l -->
<g id="edge6" class="edge">
<title>f1_cand&#45;&gt;new_l</title>
<path fill="none" stroke="#1b5e20" stroke-width="2" d="M448.68,-110.66C472.49,-134.88 514.57,-175.23 556,-203 558.16,-204.45 560.4,-205.87 562.69,-207.25"/>
<polygon fill="#1b5e20" stroke="#1b5e20" stroke-width="2" points="561.29,-210.48 571.71,-212.41 564.76,-204.41 561.29,-210.48"/>
<text text-anchor="middle" x="519.5" y="-207.8" font-family="Arial" font-size="9.00" fill="#1b5e20">кворум ✓</text>
<text text-anchor="middle" x="519.5" y="-197.8" font-family="Arial" font-size="9.00" fill="#1b5e20">(2 из 2)</text>
</g>
<!-- f2_vote&#45;&gt;f1_cand -->
<g id="edge5" class="edge">
<title>f2_vote&#45;&gt;f1_cand</title>
<path fill="none" stroke="#2e7d32" d="M584.41,-74.83C572.33,-76.19 558.55,-77.71 546,-79 526.22,-81.04 504.53,-83.12 485.27,-84.91"/>
<polygon fill="#2e7d32" stroke="#2e7d32" points="484.78,-81.44 475.14,-85.85 485.42,-88.41 484.78,-81.44"/>
<text text-anchor="middle" x="519.5" y="-87.8" font-family="Arial" font-size="9.00">Granted</text>
</g>
<!-- f2_final -->
<g id="node10" class="node">
<title>f2_final</title>
<polygon fill="#e3f2fd" stroke="#1565c0" points="645.5,-194 591.5,-194 591.5,-158 645.5,-158 645.5,-194"/>
<text text-anchor="middle" x="618.5" y="-179" font-family="Arial" font-size="10.00">Follower</text>
<text text-anchor="middle" x="618.5" y="-168" font-family="Arial" font-size="10.00">Term=6</text>
</g>
</g>
</svg>
