<?xml version="1.0" encoding="UTF-8" standalone="no"?>
<!DOCTYPE svg PUBLIC "-//W3C//DTD SVG 1.1//EN"
 "http://www.w3.org/Graphics/SVG/1.1/DTD/svg11.dtd">
<!-- Generated by graphviz version 2.43.0 (0)
 -->
<!-- Title: usage_collector_architecture Pages: 1 -->
<svg width="3042pt" height="3456pt"
 viewBox="0.00 0.00 730.00 829.50" xmlns="http://www.w3.org/2000/svg" xmlns:xlink="http://www.w3.org/1999/xlink">
<g id="graph0" class="graph" transform="scale(4.17 4.17) rotate(0) translate(4 825.5)">
<title>usage_collector_architecture</title>
<polygon fill="white" stroke="transparent" points="-4,4 -4,-825.5 726,-825.5 726,4 -4,4"/>
<text text-anchor="middle" x="361" y="-804.7" font-family="Helvetica,sans-Serif" font-size="16.00">Usage Collector — архитектура потока данных</text>
<g id="clust1" class="cluster">
<title>cluster_gateway</title>
<path fill="#fff3e0" stroke="#e65100" stroke-dasharray="5,2" d="M20,-137C20,-137 137,-137 137,-137 143,-137 149,-143 149,-149 149,-149 149,-775.5 149,-775.5 149,-781.5 143,-787.5 137,-787.5 137,-787.5 20,-787.5 20,-787.5 14,-787.5 8,-781.5 8,-775.5 8,-775.5 8,-149 8,-149 8,-143 14,-137 20,-137"/>
<text text-anchor="middle" x="78.5" y="-770.7" font-family="Helvetica,sans-Serif" font-size="16.00">Gateway Aither</text>
</g>
<g id="clust2" class="cluster">
<title>cluster_storage</title>
<path fill="#ede7f6" stroke="#4527a0" stroke-dasharray="5,2" d="M206,-8C206,-8 411,-8 411,-8 417,-8 423,-14 423,-20 423,-20 423,-79 423,-79 423,-85 417,-91 411,-91 411,-91 206,-91 206,-91 200,-91 194,-85 194,-79 194,-79 194,-20 194,-20 194,-14 200,-8 206,-8"/>
<text text-anchor="middle" x="308.5" y="-74.2" font-family="Helvetica,sans-Serif" font-size="16.00">Хранилища</text>
</g>
<g id="clust3" class="cluster">
<title>cluster_vllm</title>
<path fill="#fce4ec" stroke="#c62828" stroke-dasharray="5,2" d="M270,-248.5C270,-248.5 413,-248.5 413,-248.5 419,-248.5 425,-254.5 425,-260.5 425,-260.5 425,-314.5 425,-314.5 425,-320.5 419,-326.5 413,-326.5 413,-326.5 270,-326.5 270,-326.5 264,-326.5 258,-320.5 258,-314.5 258,-314.5 258,-260.5 258,-260.5 258,-254.5 264,-248.5 270,-248.5"/>
<text text-anchor="middle" x="341.5" y="-309.7" font-family="Helvetica,sans-Serif" font-size="16.00">Инференс&#45;сервер</text>
</g>
<!-- auth -->
<g id="node1" class="node">
<title>auth</title>
<path fill="#ffe0b2" stroke="#bf360c" d="M116.5,-753.5C116.5,-753.5 79.5,-753.5 79.5,-753.5 73.5,-753.5 67.5,-747.5 67.5,-741.5 67.5,-741.5 67.5,-729.5 67.5,-729.5 67.5,-723.5 73.5,-717.5 79.5,-717.5 79.5,-717.5 116.5,-717.5 116.5,-717.5 122.5,-717.5 128.5,-723.5 128.5,-729.5 128.5,-729.5 128.5,-741.5 128.5,-741.5 128.5,-747.5 122.5,-753.5 116.5,-753.5"/>
<text text-anchor="middle" x="98" y="-738.5" font-family="Helvetica,sans-Serif" font-size="10.00">JWT Auth</text>
<text text-anchor="middle" x="98" y="-727.5" font-family="Helvetica,sans-Serif" font-size="10.00">org_id</text>
</g>
<!-- ratelimit -->
<g id="node2" class="node">
<title>ratelimit</title>
<path fill="#ffe0b2" stroke="#bf360c" d="M124.5,-644.5C124.5,-644.5 71.5,-644.5 71.5,-644.5 65.5,-644.5 59.5,-638.5 59.5,-632.5 59.5,-632.5 59.5,-620.5 59.5,-620.5 59.5,-614.5 65.5,-608.5 71.5,-608.5 71.5,-608.5 124.5,-608.5 124.5,-608.5 130.5,-608.5 136.5,-614.5 136.5,-620.5 136.5,-620.5 136.5,-632.5 136.5,-632.5 136.5,-638.5 130.5,-644.5 124.5,-644.5"/>
<text text-anchor="middle" x="98" y="-629.5" font-family="Helvetica,sans-Serif" font-size="10.00">Rate Limiter</text>
<text text-anchor="middle" x="98" y="-618.5" font-family="Helvetica,sans-Serif" font-size="10.00">RPM + TPM</text>
</g>
<!-- auth&#45;&gt;ratelimit -->
<g id="edge1" class="edge">
<title>auth&#45;&gt;ratelimit</title>
<path fill="none" stroke="#37474f" d="M98,-717.01C98,-717.01 98,-652.72 98,-652.72"/>
<polygon fill="#37474f" stroke="#37474f" points="100.8,-652.72 98,-644.72 95.2,-652.72 100.8,-652.72"/>
</g>
<!-- reserve -->
<g id="node3" class="node">
<title>reserve</title>
<path fill="#ffe0b2" stroke="#bf360c" d="M129,-535.5C129,-535.5 45,-535.5 45,-535.5 39,-535.5 33,-529.5 33,-523.5 33,-523.5 33,-511.5 33,-511.5 33,-505.5 39,-499.5 45,-499.5 45,-499.5 129,-499.5 129,-499.5 135,-499.5 141,-505.5 141,-511.5 141,-511.5 141,-523.5 141,-523.5 141,-529.5 135,-535.5 129,-535.5"/>
<text text-anchor="middle" x="87" y="-520.5" font-family="Helvetica,sans-Serif" font-size="10.00">Billing Reserve</text>
<text text-anchor="middle" x="87" y="-509.5" font-family="Helvetica,sans-Serif" font-size="10.00">billing_op(reserve)</text>
</g>
<!-- ratelimit&#45;&gt;reserve -->
<g id="edge2" class="edge">
<title>ratelimit&#45;&gt;reserve</title>
<path fill="none" stroke="#37474f" d="M98,-608.01C98,-608.01 98,-543.72 98,-543.72"/>
<polygon fill="#37474f" stroke="#37474f" points="100.8,-543.72 98,-535.72 95.2,-543.72 100.8,-543.72"/>
</g>
<!-- redis -->
<g id="node8" class="node">
<title>redis</title>
<path fill="#d1c4e9" stroke="#311b92" d="M402.5,-57C402.5,-57 359.5,-57 359.5,-57 353.5,-57 347.5,-51 347.5,-45 347.5,-45 347.5,-28 347.5,-28 347.5,-22 353.5,-16 359.5,-16 359.5,-16 402.5,-16 402.5,-16 408.5,-16 414.5,-22 414.5,-28 414.5,-28 414.5,-45 414.5,-45 414.5,-51 408.5,-57 402.5,-57"/>
<text text-anchor="middle" x="381" y="-45" font-family="Helvetica,sans-Serif" font-size="10.00">Redis</text>
<text text-anchor="middle" x="381" y="-34" font-family="Helvetica,sans-Serif" font-size="10.00">счётчики</text>
<text text-anchor="middle" x="381" y="-23" font-family="Helvetica,sans-Serif" font-size="10.00">rate limits</text>
</g>
<!-- ratelimit&#45;&gt;redis -->
<g id="edge12" class="edge">
<title>ratelimit&#45;&gt;redis</title>
<path fill="none" stroke="#4527a0" d="M136.61,-626C215.7,-626 388.75,-626 388.75,-626 388.75,-626 388.75,-65.13 388.75,-65.13"/>
<polygon fill="#4527a0" stroke="#4527a0" points="391.55,-65.13 388.75,-57.13 385.95,-65.13 391.55,-65.13"/>
<text text-anchor="middle" x="702.5" y="-342.3" font-family="Helvetica,sans-Serif" font-size="9.00">INCR rl:*</text>
</g>
<!-- proxy -->
<g id="node4" class="node">
<title>proxy</title>
<path fill="#ffe0b2" stroke="#bf360c" d="M126,-426.5C126,-426.5 64,-426.5 64,-426.5 58,-426.5 52,-420.5 52,-414.5 52,-414.5 52,-402.5 52,-402.5 52,-396.5 58,-390.5 64,-390.5 64,-390.5 126,-390.5 126,-390.5 132,-390.5 138,-396.5 138,-402.5 138,-402.5 138,-414.5 138,-414.5 138,-420.5 132,-426.5 126,-426.5"/>
<text text-anchor="middle" x="95" y="-411.5" font-family="Helvetica,sans-Serif" font-size="10.00">Proxy to vLLM</text>
<text text-anchor="middle" x="95" y="-400.5" font-family="Helvetica,sans-Serif" font-size="10.00">замер latency</text>
</g>
<!-- reserve&#45;&gt;proxy -->
<g id="edge3" class="edge">
<title>reserve&#45;&gt;proxy</title>
<path fill="none" stroke="#37474f" d="M95,-499.01C95,-499.01 95,-434.72 95,-434.72"/>
<polygon fill="#37474f" stroke="#37474f" points="97.8,-434.72 95,-426.72 92.2,-434.72 97.8,-434.72"/>
</g>
<!-- pg -->
<g id="node7" class="node">
<title>pg</title>
<path fill="#d1c4e9" stroke="#311b92" d="M277.5,-57C277.5,-57 214.5,-57 214.5,-57 208.5,-57 202.5,-51 202.5,-45 202.5,-45 202.5,-28 202.5,-28 202.5,-22 208.5,-16 214.5,-16 214.5,-16 277.5,-16 277.5,-16 283.5,-16 289.5,-22 289.5,-28 289.5,-28 289.5,-45 289.5,-45 289.5,-51 283.5,-57 277.5,-57"/>
<text text-anchor="middle" x="246" y="-45" font-family="Helvetica,sans-Serif" font-size="10.00">PostgreSQL</text>
<text text-anchor="middle" x="246" y="-34" font-family="Helvetica,sans-Serif" font-size="10.00">usage_records</text>
<text text-anchor="middle" x="246" y="-23" font-family="Helvetica,sans-Serif" font-size="10.00">billing_ledger</text>
</g>
<!-- reserve&#45;&gt;pg -->
<g id="edge11" class="edge">
<title>reserve&#45;&gt;pg</title>
<path fill="none" stroke="#4527a0" d="M141.03,-517C190.09,-517 254.83,-517 254.83,-517 254.83,-517 254.83,-65.15 254.83,-65.15"/>
<polygon fill="#4527a0" stroke="#4527a0" points="257.63,-65.15 254.83,-57.15 252.03,-65.15 257.63,-65.15"/>
<text text-anchor="middle" x="562" y="-272.3" font-family="Helvetica,sans-Serif" font-size="9.00">UPDATE billing</text>
</g>
<!-- collector -->
<g id="node5" class="node">
<title>collector</title>
<path fill="#ffcc80" stroke="#e65100" d="M122.5,-295C122.5,-295 35.5,-295 35.5,-295 29.5,-295 23.5,-289 23.5,-283 23.5,-283 23.5,-266 23.5,-266 23.5,-260 29.5,-254 35.5,-254 35.5,-254 122.5,-254 122.5,-254 128.5,-254 134.5,-260 134.5,-266 134.5,-266 134.5,-283 134.5,-283 134.5,-289 128.5,-295 122.5,-295"/>
<text text-anchor="middle" x="79" y="-283" font-family="Helvetica,sans-Serif" font-size="10.00">Usage Collector</text>
<text text-anchor="middle" x="79" y="-272" font-family="Helvetica,sans-Serif" font-size="10.00">извлечение usage</text>
<text text-anchor="middle" x="79" y="-261" font-family="Helvetica,sans-Serif" font-size="10.00">+ INSERT record</text>
</g>
<!-- proxy&#45;&gt;collector -->
<g id="edge4" class="edge">
<title>proxy&#45;&gt;collector</title>
<path fill="none" stroke="#37474f" d="M93.25,-390.43C93.25,-390.43 93.25,-303.36 93.25,-303.36"/>
<polygon fill="#37474f" stroke="#37474f" points="96.05,-303.36 93.25,-295.36 90.45,-303.36 96.05,-303.36"/>
</g>
<!-- vllm -->
<g id="node9" class="node">
<title>vllm</title>
<path fill="#f8bbd0" stroke="#880e4f" d="M351,-292.5C351,-292.5 293,-292.5 293,-292.5 287,-292.5 281,-286.5 281,-280.5 281,-280.5 281,-268.5 281,-268.5 281,-262.5 287,-256.5 293,-256.5 293,-256.5 351,-256.5 351,-256.5 357,-256.5 363,-262.5 363,-268.5 363,-268.5 363,-280.5 363,-280.5 363,-286.5 357,-292.5 351,-292.5"/>
<text text-anchor="middle" x="322" y="-277.5" font-family="Helvetica,sans-Serif" font-size="10.00">vLLM</text>
<text text-anchor="middle" x="322" y="-266.5" font-family="Helvetica,sans-Serif" font-size="10.00">Qwen2.5&#45;14B</text>
</g>
<!-- proxy&#45;&gt;vllm -->
<g id="edge6" class="edge">
<title>proxy&#45;&gt;vllm</title>
<path fill="none" stroke="#1565c0" d="M138.03,-414C207.25,-414 335.67,-414 335.67,-414 335.67,-414 335.67,-300.74 335.67,-300.74"/>
<polygon fill="#1565c0" stroke="#1565c0" points="338.47,-300.74 335.67,-292.74 332.87,-300.74 338.47,-300.74"/>
<text text-anchor="middle" x="200" y="-342.3" font-family="Helvetica,sans-Serif" font-size="9.00">POST /v1/chat/completions</text>
</g>
<!-- settle -->
<g id="node6" class="node">
<title>settle</title>
<path fill="#ffe0b2" stroke="#bf360c" d="M103.5,-181C103.5,-181 28.5,-181 28.5,-181 22.5,-181 16.5,-175 16.5,-169 16.5,-169 16.5,-157 16.5,-157 16.5,-151 22.5,-145 28.5,-145 28.5,-145 103.5,-145 103.5,-145 109.5,-145 115.5,-151 115.5,-157 115.5,-157 115.5,-169 115.5,-169 115.5,-175 109.5,-181 103.5,-181"/>
<text text-anchor="middle" x="66" y="-166" font-family="Helvetica,sans-Serif" font-size="10.00">Billing Settle</text>
<text text-anchor="middle" x="66" y="-155" font-family="Helvetica,sans-Serif" font-size="10.00">billing_op(settle)</text>
</g>
<!-- collector&#45;&gt;settle -->
<g id="edge5" class="edge">
<title>collector&#45;&gt;settle</title>
<path fill="none" stroke="#37474f" d="M69.5,-253.79C69.5,-253.79 69.5,-189.02 69.5,-189.02"/>
<polygon fill="#37474f" stroke="#37474f" points="72.3,-189.02 69.5,-181.02 66.7,-189.02 72.3,-189.02"/>
</g>
<!-- collector&#45;&gt;pg -->
<g id="edge8" class="edge">
<title>collector&#45;&gt;pg</title>
<path fill="none" stroke="#4527a0" d="M121.83,-253.75C121.83,-195.73 121.83,-36 121.83,-36 121.83,-36 194.22,-36 194.22,-36"/>
<polygon fill="#4527a0" stroke="#4527a0" points="194.22,-38.8 202.22,-36 194.22,-33.2 194.22,-38.8"/>
<text text-anchor="middle" x="248.5" y="-160.8" font-family="Helvetica,sans-Serif" font-size="9.00">INSERT</text>
</g>
<!-- collector&#45;&gt;redis -->
<g id="edge9" class="edge">
<title>collector&#45;&gt;redis</title>
<path fill="none" stroke="#4527a0" d="M128.17,-253.91C128.17,-223.21 128.17,-169 128.17,-169 128.17,-169 355.25,-169 355.25,-169 355.25,-169 355.25,-65.2 355.25,-65.2"/>
<polygon fill="#4527a0" stroke="#4527a0" points="358.05,-65.2 355.25,-57.2 352.45,-65.2 358.05,-65.2"/>
<text text-anchor="middle" x="411" y="-160.8" font-family="Helvetica,sans-Serif" font-size="9.00">INCR usage:*</text>
</g>
<!-- settle&#45;&gt;pg -->
<g id="edge10" class="edge">
<title>settle&#45;&gt;pg</title>
<path fill="none" stroke="#4527a0" d="M115.69,-157C163.53,-157 228.67,-157 228.67,-157 228.67,-157 228.67,-65.21 228.67,-65.21"/>
<polygon fill="#4527a0" stroke="#4527a0" points="231.47,-65.21 228.67,-57.21 225.87,-65.21 231.47,-65.21"/>
<text text-anchor="middle" x="132" y="-101.8" font-family="Helvetica,sans-Serif" font-size="9.00">UPDATE billing</text>
</g>
<!-- vllm&#45;&gt;proxy -->
<g id="edge7" class="edge">
<title>vllm&#45;&gt;proxy</title>
<path fill="none" stroke="#2e7d32" d="M308.33,-292.77C308.33,-328.02 308.33,-402 308.33,-402 308.33,-402 146.17,-402 146.17,-402"/>
<polygon fill="#2e7d32" stroke="#2e7d32" points="146.17,-399.2 138.17,-402 146.17,-404.8 146.17,-399.2"/>
<text text-anchor="middle" x="372" y="-347.3" font-family="Helvetica,sans-Serif" font-size="9.00">response</text>
<text text-anchor="middle" x="372" y="-337.3" font-family="Helvetica,sans-Serif" font-size="9.00">+ usage.total_tokens</text>
</g>
</g>
</svg>
